STARTFONT 2.1
FONT -FontForge-Indie Flower-Book-R-Normal--36-360-72-72-P-166-ISO10646-1
SIZE 36 72 72
FONTBOUNDINGBOX 44 53 -5 -18
COMMENT "Generated by fontforge, http://fontforge.sourceforge.net"
COMMENT "Copyright (c) 2010, Kimberly Geswein (kimberlygeswein.com)"
STARTPROPERTIES 39
FOUNDRY "FontForge"
FAMILY_NAME "Indie Flower"
WEIGHT_NAME "Book"
SLANT "R"
SETWIDTH_NAME "Normal"
ADD_STYLE_NAME ""
PIXEL_SIZE 36
POINT_SIZE 360
RESOLUTION_X 72
RESOLUTION_Y 72
SPACING "P"
AVERAGE_WIDTH 166
CHARSET_REGISTRY "ISO10646"
CHARSET_ENCODING "1"
FONTNAME_REGISTRY ""
CHARSET_COLLECTIONS "ISO8859-2 ISO8859-9 ISO8859-4 ISO10646-1"
FONT_NAME "IndieFlower"
FACE_NAME "Indie Flower"
COPYRIGHT "Copyright (c) 2010, Kimberly Geswein (kimberlygeswein.com)"
FONT_VERSION "1.001 2010"
FONT_ASCENT 29
FONT_DESCENT 7
UNDERLINE_POSITION -4
UNDERLINE_THICKNESS 2
X_HEIGHT 13
CAP_HEIGHT 18
RAW_ASCENT 799
RAW_DESCENT 200
NORM_SPACE 14
RELATIVE_WEIGHT 40
RELATIVE_SETWIDTH 50
SUPERSCRIPT_X 0
SUPERSCRIPT_Y 17
SUPERSCRIPT_SIZE 23
SUBSCRIPT_X 0
SUBSCRIPT_Y 5
SUBSCRIPT_SIZE 23
AVG_LOWERCASE_WIDTH 163
AVG_UPPERCASE_WIDTH 195
ENDPROPERTIES
CHARS 356
STARTCHAR space
ENCODING 32
SWIDTH 375 0
DWIDTH 14 0
BBX 1 1 0 0
BITMAP
00
ENDCHAR
STARTCHAR exclam
ENCODING 33
SWIDTH 149 0
DWIDTH 5 0
BBX 4 30 1 0
BITMAP
40
C0
C0
C0
C0
C0
C0
C0
C0
C0
C0
C0
C0
C0
C0
C0
C0
C0
C0
40
40
00
00
00
00
00
60
F0
F0
E0
ENDCHAR
STARTCHAR quotedbl
ENCODING 34
SWIDTH 234 0
DWIDTH 8 0
BBX 7 11 0 18
BITMAP
04
86
C6
C6
66
66
66
66
76
36
32
ENDCHAR
STARTCHAR numbersign
ENCODING 35
SWIDTH 768 0
DWIDTH 28 0
BBX 27 18 0 0
BITMAP
00108000
00108000
00108000
0010C000
0018C000
001DFF80
00FFFF80
1FFFE000
7E186000
F0187FC0
001FFFE0
00FFF840
1FFC6000
1E0C6000
000C6000
000C6000
00006000
00004000
ENDCHAR
STARTCHAR dollar
ENCODING 36
SWIDTH 581 0
DWIDTH 21 0
BBX 20 33 0 0
BITMAP
001000
001100
003B00
003300
003300
003F00
00FF80
01F3C0
037300
073200
062200
032200
01E200
00E600
007600
007E00
006F00
006F80
006CC0
006C60
006830
004830
E05830
70D830
38D830
1CD830
07D870
03F860
00FDC0
00DF80
00DC00
00D800
009800
ENDCHAR
STARTCHAR percent
ENCODING 37
SWIDTH 636 0
DWIDTH 23 0
BBX 22 22 0 0
BITMAP
000020
000060
0C00C0
3F00C0
7F8180
618300
E08600
C0C400
E18C00
639800
3F1000
083060
0061F8
006198
00C30C
01C20C
01860C
03860C
030418
070670
0607E0
0401C0
ENDCHAR
STARTCHAR ampersand
ENCODING 38
SWIDTH 457 0
DWIDTH 16 0
BBX 16 25 0 0
BITMAP
0300
0780
0780
0780
07C0
0780
0780
0780
0780
0700
061E
061F
0E18
0E18
1F30
1930
31F0
30E0
60E0
60E0
61E0
C3B0
E718
7E08
3C04
ENDCHAR
STARTCHAR quotesingle
ENCODING 39
SWIDTH 102 0
DWIDTH 4 0
BBX 2 8 1 18
BITMAP
80
80
C0
C0
C0
C0
C0
C0
ENDCHAR
STARTCHAR parenleft
ENCODING 40
SWIDTH 421 0
DWIDTH 15 0
BBX 14 22 1 -1
BITMAP
0078
00FC
03C8
0700
0E00
0C00
1800
3000
3000
6000
6000
C000
C000
C000
C000
C000
C000
C000
6000
7000
3F00
1F80
ENDCHAR
STARTCHAR parenright
ENCODING 41
SWIDTH 290 0
DWIDTH 10 0
BBX 10 23 0 -2
BITMAP
3800
3C00
0E00
0700
0300
0380
0180
01C0
00C0
00C0
00C0
00C0
0180
0180
0380
0300
0700
0E00
1C00
3C00
7800
F000
6000
ENDCHAR
STARTCHAR asterisk
ENCODING 42
SWIDTH 412 0
DWIDTH 15 0
BBX 13 14 1 8
BITMAP
0018
4038
76F0
3FC0
1FE0
0FF0
FFC0
FFC0
3BC0
31E0
61E0
61F0
0180
0100
ENDCHAR
STARTCHAR plus
ENCODING 43
SWIDTH 459 0
DWIDTH 17 0
BBX 16 15 0 0
BITMAP
0200
0300
0300
0300
0380
0380
07FF
FFFF
F180
0180
0180
0180
0180
0180
0080
ENDCHAR
STARTCHAR comma
ENCODING 44
SWIDTH 130 0
DWIDTH 5 0
BBX 3 12 0 -7
BITMAP
60
60
60
60
60
60
60
60
60
E0
C0
C0
ENDCHAR
STARTCHAR hyphen
ENCODING 45
SWIDTH 375 0
DWIDTH 14 0
BBX 11 3 1 9
BITMAP
0100
FFE0
FFE0
ENDCHAR
STARTCHAR period
ENCODING 46
SWIDTH 204 0
DWIDTH 7 0
BBX 4 7 2 0
BITMAP
60
F0
F0
F0
F0
F0
60
ENDCHAR
STARTCHAR slash
ENCODING 47
SWIDTH 309 0
DWIDTH 11 0
BBX 11 27 0 0
BITMAP
0040
0060
00C0
00C0
00C0
00C0
0180
0180
0180
0300
0300
0300
0700
0600
0600
0E00
0C00
1C00
1800
1800
3800
3000
7000
6000
6000
C000
4000
ENDCHAR
STARTCHAR zero
ENCODING 48
SWIDTH 430 0
DWIDTH 16 0
BBX 14 16 1 0
BITMAP
0780
1FC0
39E0
6070
6038
C018
C018
801C
800C
8018
C018
C038
6030
3870
1FE0
07C0
ENDCHAR
STARTCHAR one
ENCODING 49
SWIDTH 318 0
DWIDTH 11 0
BBX 11 21 0 0
BITMAP
0060
0060
0060
00C0
00C0
01C0
03C0
07C0
0FC0
1DC0
19C0
3180
6180
C180
0180
0180
0180
0380
0300
0300
0100
ENDCHAR
STARTCHAR two
ENCODING 50
SWIDTH 497 0
DWIDTH 18 0
BBX 17 20 0 0
BITMAP
002000
00F800
00CC00
018600
018600
008600
000700
000300
000700
000700
000600
000600
000E00
000C00
000800
FC1800
FFF000
7FFC00
3FFF80
000780
ENDCHAR
STARTCHAR three
ENCODING 51
SWIDTH 430 0
DWIDTH 16 0
BBX 14 19 1 0
BITMAP
7F80
FFC0
4060
0060
0060
00E0
0780
3F00
7F80
07E0
00F0
0030
0018
C018
E00C
701C
3818
1FF8
07E0
ENDCHAR
STARTCHAR four
ENCODING 52
SWIDTH 412 0
DWIDTH 15 0
BBX 13 22 1 0
BITMAP
2000
6000
6000
6000
C000
C000
C018
8018
8018
8038
C078
C070
E0F0
73F0
7FB0
3F30
0030
0038
0038
0038
0038
0018
ENDCHAR
STARTCHAR five
ENCODING 53
SWIDTH 571 0
DWIDTH 21 0
BBX 19 24 1 0
BITMAP
00FF00
03FFC0
0380E0
030000
030000
060000
060000
0E0000
0E0000
1FC000
0FF000
003C00
000E00
000700
000300
000300
000100
800180
800380
800300
C00700
7C3E00
3FFC00
0FF000
ENDCHAR
STARTCHAR six
ENCODING 54
SWIDTH 440 0
DWIDTH 16 0
BBX 14 22 1 0
BITMAP
0010
00FC
03FC
0708
0E00
1C00
1800
3000
6000
6000
FFE0
FFF0
E038
C018
800C
800C
C00C
C01C
E018
78F8
3FF0
1F80
ENDCHAR
STARTCHAR seven
ENCODING 55
SWIDTH 412 0
DWIDTH 15 0
BBX 13 19 1 0
BITMAP
FFC0
7FC0
00C0
00C0
00C0
00C0
00C0
01C0
0180
3FF8
1FB8
0180
0180
0380
0300
0300
0300
0300
0600
ENDCHAR
STARTCHAR eight
ENCODING 56
SWIDTH 375 0
DWIDTH 14 0
BBX 12 21 1 0
BITMAP
0C00
3F00
7F80
E180
C180
8180
C300
E600
7E00
1C00
1E00
3300
6180
60C0
E060
6060
6020
7030
3860
1FE0
07C0
ENDCHAR
STARTCHAR nine
ENCODING 57
SWIDTH 300 0
DWIDTH 11 0
BBX 10 22 0 0
BITMAP
1F00
3F80
60C0
60C0
E0C0
C0C0
C1C0
E1C0
71C0
7FC0
1FC0
01C0
01C0
0180
0080
0080
0180
0180
0180
0180
0080
00C0
ENDCHAR
STARTCHAR colon
ENCODING 58
SWIDTH 84 0
DWIDTH 3 0
BBX 2 9 1 3
BITMAP
80
C0
80
00
00
00
00
00
80
ENDCHAR
STARTCHAR semicolon
ENCODING 59
SWIDTH 128 0
DWIDTH 5 0
BBX 5 21 -1 -7
BITMAP
30
30
30
00
00
00
00
00
00
10
18
18
18
18
30
30
70
70
60
E0
80
ENDCHAR
STARTCHAR less
ENCODING 60
SWIDTH 487 0
DWIDTH 18 0
BBX 17 15 0 0
BITMAP
000100
000780
001E00
003800
00F000
01C000
038000
0E0000
1C0000
300000
700000
FF8000
3FFC00
01FE00
000600
ENDCHAR
STARTCHAR equal
ENCODING 61
SWIDTH 524 0
DWIDTH 19 0
BBX 17 9 1 5
BITMAP
7FFF00
FFFF80
000180
000000
000000
000000
000000
7FFE00
FFFF00
ENDCHAR
STARTCHAR greater
ENCODING 62
SWIDTH 403 0
DWIDTH 15 0
BBX 13 17 1 0
BITMAP
8000
E000
7000
3E00
0FE0
01F8
0038
0038
0070
00E0
01C0
0780
0E00
1C00
7800
E000
C000
ENDCHAR
STARTCHAR question
ENCODING 63
SWIDTH 272 0
DWIDTH 10 0
BBX 9 31 0 0
BITMAP
7C00
FE00
C300
0180
0180
0180
0180
0180
0180
0380
0300
0700
0E00
0E00
1C00
1C00
1800
1C00
1F80
0F80
0000
0000
0000
0000
0000
0000
0000
0000
0100
0380
0180
ENDCHAR
STARTCHAR at
ENCODING 64
SWIDTH 815 0
DWIDTH 29 0
BBX 27 32 1 0
BITMAP
007F0000
01FFE000
0380F000
0E003C00
1C000E00
18000300
30000180
600000C0
400000E0
C0030060
C01FE060
80387820
80601C20
80C00C20
80806820
81807060
81807060
C1807060
C10070E0
410070C0
6180F9C0
6181DF80
30FF8E00
307E0000
18100000
0C000000
0E000000
07000000
01C00000
00F007C0
007FFF80
001FFC00
ENDCHAR
STARTCHAR A
ENCODING 65
SWIDTH 562 0
DWIDTH 20 0
BBX 18 27 1 0
BITMAP
07F000
0E7800
181C00
300C00
300600
200300
600300
600300
600180
600180
400180
400180
400080
4000C0
4001C0
FFFDC0
FFFFC0
6000C0
6000C0
6000C0
6000C0
6000C0
6000C0
6000C0
7000C0
3000C0
300080
ENDCHAR
STARTCHAR B
ENCODING 66
SWIDTH 741 0
DWIDTH 27 0
BBX 25 25 1 0
BITMAP
03F00000
3FFE0000
EFC70000
87018000
0300C000
0300C000
0180C000
01818000
01830000
019F0000
01BF0000
00CFC000
00C3F000
00C07800
00C01C00
00C00600
00E00300
00600300
00600180
00600180
00E00380
01E00380
00F80700
007FFE00
000FF800
ENDCHAR
STARTCHAR C
ENCODING 67
SWIDTH 515 0
DWIDTH 19 0
BBX 17 23 1 0
BITMAP
00F800
03F800
079800
0E1800
1C1000
300000
300000
600000
400000
C00000
C00000
800000
800000
800000
800000
C00000
C00000
C00000
600000
600700
38FF80
1FFC00
0F8000
ENDCHAR
STARTCHAR D
ENCODING 68
SWIDTH 741 0
DWIDTH 27 0
BBX 25 23 1 0
BITMAP
07000000
7FF80000
FC7F0000
8077C000
0030E000
00307800
00301C00
00300C00
00300600
00100700
00180300
00180300
00180180
00180180
00180180
00180380
00180300
00180700
00180E00
00081E00
00E07C00
00FFF800
007FE000
ENDCHAR
STARTCHAR E
ENCODING 69
SWIDTH 524 0
DWIDTH 19 0
BBX 16 22 1 0
BITMAP
FFFE
FFFF
C000
C000
C000
C000
C000
C000
C0FE
FFF8
FE00
C000
C000
C000
C000
C000
C000
C000
C000
C0FF
7FFF
3FF8
ENDCHAR
STARTCHAR F
ENCODING 70
SWIDTH 514 0
DWIDTH 19 0
BBX 23 22 -1 0
BITMAP
007800
3FFFF0
FFFFFC
03003E
030002
030000
030000
030000
030000
030000
039E00
1FFF80
3FFF00
018000
018000
018000
018000
018000
01C000
01C000
00C000
004000
ENDCHAR
STARTCHAR G
ENCODING 71
SWIDTH 571 0
DWIDTH 21 0
BBX 19 21 1 -2
BITMAP
000F00
007F80
01F0C0
038000
0E0000
1C0000
380000
300000
608000
60FFC0
C07FC0
C000C0
C000C0
C000C0
4001C0
6003C0
380FC0
1FFCC0
0780C0
0000C0
0000E0
ENDCHAR
STARTCHAR H
ENCODING 72
SWIDTH 524 0
DWIDTH 19 0
BBX 17 24 1 0
BITMAP
000300
C00300
C00300
C00300
C00300
C00300
400300
400300
600300
600700
601F00
607B00
61E300
6F8300
7E0300
F80300
700300
300300
300300
300300
300300
300380
300180
200180
ENDCHAR
STARTCHAR I
ENCODING 73
SWIDTH 167 0
DWIDTH 6 0
BBX 4 20 1 0
BITMAP
80
80
C0
C0
C0
C0
60
60
60
60
60
30
30
30
30
30
30
30
30
10
ENDCHAR
STARTCHAR J
ENCODING 74
SWIDTH 439 0
DWIDTH 16 0
BBX 14 25 1 0
BITMAP
0030
0030
0010
0018
0018
0018
0018
0018
0018
000C
000C
000C
400C
800C
C00C
C00C
400C
600C
300C
180C
0C0C
060C
0398
01F8
0070
ENDCHAR
STARTCHAR K
ENCODING 75
SWIDTH 468 0
DWIDTH 17 0
BBX 15 21 1 0
BITMAP
8060
80E0
C1C0
C380
C700
CE00
CC00
D800
7000
6000
6000
7000
7800
7C00
6E00
6780
61C0
60F0
6038
601E
2006
ENDCHAR
STARTCHAR L
ENCODING 76
SWIDTH 346 0
DWIDTH 12 0
BBX 11 19 1 0
BITMAP
6000
6000
6000
E000
E000
C000
C000
C000
C000
C000
C000
C000
C000
C000
C000
C000
F800
7FE0
1FE0
ENDCHAR
STARTCHAR M
ENCODING 77
SWIDTH 534 0
DWIDTH 19 0
BBX 17 22 1 0
BITMAP
C00300
E00300
E00700
700700
700F00
780F00
7C3F00
6FFF00
67E700
600300
600300
600300
600300
600300
600300
600380
600380
600380
600180
600180
600180
000180
ENDCHAR
STARTCHAR N
ENCODING 78
SWIDTH 609 0
DWIDTH 22 0
BBX 20 19 1 0
BITMAP
C00000
C00100
600380
6001C0
6001C0
7000C0
7000E0
700060
780060
F80030
CC0030
CC0030
C60030
C30030
C38070
C1C0E0
C0FFC0
C07F80
C00E00
ENDCHAR
STARTCHAR O
ENCODING 79
SWIDTH 609 0
DWIDTH 22 0
BBX 20 17 1 0
BITMAP
1FC000
3FF800
603E00
C00F00
C00380
C001C0
8000C0
800060
800060
C00030
C00030
600030
700070
3800E0
1E03C0
0FFF00
03F800
ENDCHAR
STARTCHAR P
ENCODING 80
SWIDTH 627 0
DWIDTH 23 0
BBX 21 22 1 0
BITMAP
060000
7FF800
E0FF00
C007C0
8001E0
008070
008038
008018
008018
00C018
00C038
00C070
00C1E0
00FFC0
00FE00
00C000
00C000
006000
006000
006000
006000
002000
ENDCHAR
STARTCHAR Q
ENCODING 81
SWIDTH 642 0
DWIDTH 23 0
BBX 23 23 1 -4
BITMAP
07E000
1FF800
381E00
600F00
600F80
C00DC0
C008E0
C01870
C00030
C00018
C00018
C03018
403018
601818
301C30
380EF0
1F1FC0
07FF80
01FFC0
0000E0
000030
00003C
00000E
ENDCHAR
STARTCHAR R
ENCODING 82
SWIDTH 579 0
DWIDTH 21 0
BBX 20 24 0 -2
BITMAP
3FFC00
FFFF00
C00380
8001C0
8800E0
0C0060
0C00E0
0C01C0
0C0FC0
07FF00
07F800
070000
070000
078000
07C000
02E000
027000
033800
031C00
030E00
010380
0101C0
0000F0
000020
ENDCHAR
STARTCHAR S
ENCODING 83
SWIDTH 627 0
DWIDTH 23 0
BBX 21 22 1 0
BITMAP
003000
03FF00
0703C0
0C00C0
080060
0C0000
0C0000
060000
078000
01E000
007800
001E00
000F80
4003C0
C000E0
C00030
C00038
E00038
700038
1C0070
0FFFE0
01FF80
ENDCHAR
STARTCHAR T
ENCODING 84
SWIDTH 581 0
DWIDTH 21 0
BBX 24 23 0 0
BITMAP
C00000
FFFFF0
07FFFE
00181F
001800
001800
001800
001800
001800
000800
000C00
000C00
000C00
000C00
000C00
000C00
000C00
000E00
000600
000600
000700
000700
000300
ENDCHAR
STARTCHAR U
ENCODING 85
SWIDTH 571 0
DWIDTH 21 0
BBX 19 20 1 0
BITMAP
200000
600200
C00300
C00700
C00700
C00300
C00300
C00300
C00300
C00300
C00180
400180
600180
6001C0
6003C0
3007C0
381EE0
1E7860
0FF060
07C000
ENDCHAR
STARTCHAR V
ENCODING 86
SWIDTH 421 0
DWIDTH 15 0
BBX 13 19 1 0
BITMAP
8008
C018
E018
E018
6018
7038
3038
3838
3830
1C30
1C30
0C70
0E60
0660
0760
03C0
03C0
0180
0180
ENDCHAR
STARTCHAR W
ENCODING 87
SWIDTH 703 0
DWIDTH 25 0
BBX 25 18 0 0
BITMAP
40000000
40000C00
C0000C00
C0000E00
C0000E00
E0000700
E0000700
60300300
60300300
60300300
60380180
60380180
70380380
307C0300
30EE0700
1FC79E00
1F03FC00
0600F000
ENDCHAR
STARTCHAR X
ENCODING 88
SWIDTH 534 0
DWIDTH 19 0
BBX 18 21 1 -2
BITMAP
200000
3000C0
380380
180700
0C0C00
0C1800
063000
03E000
03C000
038000
078000
0FC000
1CE000
186000
303000
703800
601C00
C00C00
C00600
C00000
800000
ENDCHAR
STARTCHAR Y
ENCODING 89
SWIDTH 403 0
DWIDTH 15 0
BBX 13 24 1 -1
BITMAP
8000
8018
C018
E018
6018
7030
3830
1E70
07E0
03E0
00E0
00C0
00C0
0180
0180
0180
0180
0300
0300
0300
0300
0300
0300
0200
ENDCHAR
STARTCHAR Z
ENCODING 90
SWIDTH 571 0
DWIDTH 21 0
BBX 19 22 1 0
BITMAP
7FC000
FBE000
803000
001800
000800
000800
000800
001800
001800
003800
01FF80
1FFFC0
1FF000
00E000
00C000
018000
018000
030000
0700E0
070FE0
07FFC0
03FC00
ENDCHAR
STARTCHAR bracketleft
ENCODING 91
SWIDTH 477 0
DWIDTH 17 0
BBX 19 28 1 -3
BITMAP
007F00
03F800
1F8000
FC0000
E00000
C00000
C00000
E00000
600000
600000
700000
300000
300000
300000
300000
300000
100000
100000
180000
180000
180000
180000
180000
080000
080000
0C3FC0
0FFFC0
0F0020
ENDCHAR
STARTCHAR backslash
ENCODING 92
SWIDTH 430 0
DWIDTH 16 0
BBX 15 20 0 0
BITMAP
8000
C000
6000
7000
3800
1C00
0E00
0E00
0700
0380
01C0
01E0
00F0
0070
0038
001C
001C
000E
000E
0004
ENDCHAR
STARTCHAR bracketright
ENCODING 93
SWIDTH 430 0
DWIDTH 16 0
BBX 15 33 0 -3
BITMAP
7C00
FFE0
07F0
0038
0018
0018
0018
001C
000C
000C
000C
000C
000C
000C
000C
000C
000C
000C
000C
0004
0004
0004
0004
0004
0004
0004
0006
0006
0006
0006
000E
3FFE
3FFE
ENDCHAR
STARTCHAR asciicircum
ENCODING 94
SWIDTH 375 0
DWIDTH 14 0
BBX 10 7 2 19
BITMAP
0C00
0E00
1F00
3F00
7380
E1C0
C0C0
ENDCHAR
STARTCHAR underscore
ENCODING 95
SWIDTH 656 0
DWIDTH 24 0
BBX 22 4 1 0
BITMAP
F00000
7FFFF8
0FFFFC
000FFC
ENDCHAR
STARTCHAR grave
ENCODING 96
SWIDTH 172 0
DWIDTH 6 0
BBX 5 4 1 16
BITMAP
C0
E0
70
38
ENDCHAR
STARTCHAR a
ENCODING 97
SWIDTH 505 0
DWIDTH 18 0
BBX 16 18 1 0
BITMAP
0780
0FE0
0CF0
0038
0018
000C
000E
1FEE
3FFE
701F
C00F
C007
8003
C001
E000
7C7F
3FFE
07F0
ENDCHAR
STARTCHAR b
ENCODING 98
SWIDTH 497 0
DWIDTH 18 0
BBX 17 23 0 0
BITMAP
400000
E00000
E00000
600000
600000
600000
600000
600000
600000
200000
300000
3FE000
3FF800
383E00
380700
300380
300180
100180
180180
1C0380
1E0780
0FFF00
03FC00
ENDCHAR
STARTCHAR c
ENCODING 99
SWIDTH 449 0
DWIDTH 16 0
BBX 14 16 1 0
BITMAP
07C0
1FE0
3030
6030
6010
C020
C000
C000
C000
C000
C000
E000
7000
7C00
1FFC
07F8
ENDCHAR
STARTCHAR d
ENCODING 100
SWIDTH 524 0
DWIDTH 19 0
BBX 17 26 1 0
BITMAP
001000
001800
001C00
001C00
001C00
000E00
000E00
000E00
000E00
000600
1F0700
3FC700
7FF700
707F00
E01F00
E00F00
C00700
C00700
C00F00
C00F00
C01F00
E03B80
607380
7BE180
3FC100
1F0000
ENDCHAR
STARTCHAR e
ENCODING 101
SWIDTH 515 0
DWIDTH 19 0
BBX 17 19 1 0
BITMAP
038000
0FE000
3C6000
303000
603000
C03000
C03000
C07000
C0E000
F7C000
FF0000
C00000
C00000
E00000
600000
380000
1F0380
0FFE00
03F800
ENDCHAR
STARTCHAR f
ENCODING 102
SWIDTH 376 0
DWIDTH 14 0
BBX 16 25 0 0
BITMAP
01F8
03FC
070E
0607
0C03
0C00
0800
0800
1800
1800
1800
1C00
1C00
1F00
FFF8
CFF0
0600
0600
0700
0300
0380
01C0
01C0
00E0
0060
ENDCHAR
STARTCHAR g
ENCODING 103
SWIDTH 366 0
DWIDTH 13 0
BBX 18 33 -5 -18
BITMAP
000C00
003E00
007300
00C180
018180
018180
030180
030180
030180
0301C0
0303C0
0387C0
01FFC0
00F9C0
0001C0
0001C0
0000C0
0000C0
0000C0
0000C0
0000C0
0000C0
0000C0
4000C0
C000C0
C000C0
6000C0
7001C0
3C0180
1F8380
07FF00
01FE00
000800
ENDCHAR
STARTCHAR h
ENCODING 104
SWIDTH 427 0
DWIDTH 15 0
BBX 15 25 -1 0
BITMAP
C000
6000
6000
6000
7000
3000
3000
3000
3000
37E0
1FF0
1E78
1818
180C
180C
1804
1806
1806
1806
1806
1C06
1C06
0C06
0C06
0C04
ENDCHAR
STARTCHAR i
ENCODING 105
SWIDTH 174 0
DWIDTH 6 0
BBX 6 22 0 0
BITMAP
40
E0
60
00
00
00
30
30
30
30
30
30
30
38
38
18
18
18
1C
1C
1C
08
ENDCHAR
STARTCHAR j
ENCODING 106
SWIDTH 200 0
DWIDTH 7 0
BBX 12 37 -4 -16
BITMAP
0600
0600
0300
0000
0000
0000
0000
0100
0180
0180
0180
01C0
01C0
00C0
00C0
00E0
00E0
00E0
0060
0060
0060
0060
0070
0070
0030
8030
C030
C030
E030
6030
7030
3030
1830
1C30
0FF0
03E0
01E0
ENDCHAR
STARTCHAR k
ENCODING 107
SWIDTH 403 0
DWIDTH 15 0
BBX 14 22 0 0
BITMAP
8000
8000
C000
C000
4000
6000
6060
60F0
60C0
6180
3300
3600
3C00
3C00
3800
3800
3C00
3E00
3F80
33F8
30FC
3038
ENDCHAR
STARTCHAR l
ENCODING 108
SWIDTH 120 0
DWIDTH 4 0
BBX 2 21 1 0
BITMAP
C0
C0
C0
C0
C0
C0
C0
C0
C0
C0
C0
C0
C0
C0
C0
C0
C0
C0
C0
C0
C0
ENDCHAR
STARTCHAR m
ENCODING 109
SWIDTH 750 0
DWIDTH 27 0
BBX 25 15 1 0
BITMAP
0000F800
9F83FC00
FFC78E00
F0EE0600
E07C0300
E0380300
C0380380
C0380180
C0180180
C0180180
E01C0180
E00C0180
E00C0180
60000180
00000100
ENDCHAR
STARTCHAR n
ENCODING 110
SWIDTH 459 0
DWIDTH 17 0
BBX 15 16 1 0
BITMAP
03C0
0FE0
F870
F038
E018
E01C
C00C
C00C
C00C
E00E
E006
6006
6006
7006
3006
3004
ENDCHAR
STARTCHAR o
ENCODING 111
SWIDTH 487 0
DWIDTH 18 0
BBX 16 15 1 0
BITMAP
03E0
1FF8
3C7C
701C
E006
C006
8002
8007
8006
C006
C00E
601C
787C
3FF0
0FC0
ENDCHAR
STARTCHAR p
ENCODING 112
SWIDTH 520 0
DWIDTH 19 0
BBX 17 26 1 -13
BITMAP
00C000
0FF800
3FFE00
780700
600300
E00180
E00180
E00180
EC0380
EF0780
E7FF00
E3FC00
E00000
F00000
700000
700000
700000
700000
300000
380000
380000
380000
180000
180000
180000
080000
ENDCHAR
STARTCHAR q
ENCODING 113
SWIDTH 412 0
DWIDTH 15 0
BBX 13 30 1 -12
BITMAP
07C0
1FE0
3870
7030
6038
C030
C030
C030
8030
8070
8070
C070
C070
E070
7070
3FF0
1FE0
0060
0030
0030
0030
0030
0030
0030
0030
0030
0030
0030
0030
0010
ENDCHAR
STARTCHAR r
ENCODING 114
SWIDTH 346 0
DWIDTH 12 0
BBX 11 16 1 0
BITMAP
1FC0
FFE0
E060
C000
C000
C000
C000
C000
C000
6000
6000
6000
7000
3000
3000
1000
ENDCHAR
STARTCHAR s
ENCODING 115
SWIDTH 514 0
DWIDTH 19 0
BBX 17 16 1 0
BITMAP
3FC000
7DE000
E02000
C03000
C02000
600000
3C0000
1FF800
00FE00
000700
000300
800380
E00300
780700
3FFE00
0FF800
ENDCHAR
STARTCHAR t
ENCODING 116
SWIDTH 328 0
DWIDTH 12 0
BBX 12 23 0 -1
BITMAP
0C00
0E00
0E00
0600
0600
0600
0E00
0E00
FFE0
7FF0
0600
0600
0600
0600
0600
0600
0600
0600
0600
0600
0600
0600
0200
ENDCHAR
STARTCHAR u
ENCODING 117
SWIDTH 501 0
DWIDTH 18 0
BBX 18 17 0 0
BITMAP
400000
600000
600400
C00600
400600
600600
600600
600600
600600
600600
300F00
301F00
183B00
1C7180
0FE180
03C180
0001C0
ENDCHAR
STARTCHAR v
ENCODING 118
SWIDTH 389 0
DWIDTH 14 0
BBX 13 14 0 0
BITMAP
8000
E000
6018
7018
3030
3830
1860
1860
0CE0
0CC0
06C0
07C0
0380
0100
ENDCHAR
STARTCHAR w
ENCODING 119
SWIDTH 656 0
DWIDTH 24 0
BBX 23 15 0 0
BITMAP
200000
600000
600010
600018
C01808
C0180C
C0180C
60180C
601806
601C0E
703C0E
307E1C
1DE7FC
0FC3F8
078000
ENDCHAR
STARTCHAR x
ENCODING 120
SWIDTH 448 0
DWIDTH 16 0
BBX 16 16 0 -2
BITMAP
8003
E00E
701C
3838
1C70
0FC0
0780
0780
07C0
0DE0
1870
1038
301C
200C
000E
0006
ENDCHAR
STARTCHAR y
ENCODING 121
SWIDTH 487 0
DWIDTH 18 0
BBX 16 34 1 -18
BITMAP
8004
8004
8004
8006
8006
C006
C006
C006
C006
6007
6007
300F
183F
0FF3
07C3
0003
0003
0003
0003
0003
0003
0003
0003
0003
0003
0006
4006
6006
7006
380C
1E1C
0FF8
03F0
0040
ENDCHAR
STARTCHAR z
ENCODING 122
SWIDTH 459 0
DWIDTH 17 0
BBX 15 19 1 0
BITMAP
0600
7FC0
E0E0
C060
0060
0060
0060
00C0
00C0
3FF8
FFE0
0700
0E00
0C00
1800
3804
3C7E
3FF8
0FC0
ENDCHAR
STARTCHAR braceleft
ENCODING 123
SWIDTH 393 0
DWIDTH 14 0
BBX 13 36 1 -4
BITMAP
03E0
0FF0
3C10
7000
6000
E000
C000
C000
8000
8000
C000
6000
7000
3C00
1F80
07C0
07C0
0FC0
3860
E060
8060
00E0
01C0
0380
0700
1C00
3800
3000
6000
6000
6000
3000
3800
1E78
1FF0
0400
ENDCHAR
STARTCHAR bar
ENCODING 124
SWIDTH 149 0
DWIDTH 5 0
BBX 4 23 1 0
BITMAP
80
80
C0
C0
C0
40
40
60
60
60
60
60
60
60
60
60
60
60
60
60
20
30
20
ENDCHAR
STARTCHAR braceright
ENCODING 125
SWIDTH 440 0
DWIDTH 16 0
BBX 15 42 0 -8
BITMAP
7FC0
FFE0
C070
7038
0018
0018
0018
0038
0070
00E0
01C0
0380
0600
0E00
0C00
0C00
0FF8
07F8
0700
0C00
0C00
0600
0700
0180
00C0
0060
0070
0030
0018
0018
000C
000C
0006
0006
0006
0006
0006
C00E
C00C
F03C
7FF8
1FE0
ENDCHAR
STARTCHAR asciitilde
ENCODING 126
SWIDTH 402 0
DWIDTH 14 0
BBX 12 6 1 14
BITMAP
2030
7830
CEE0
83C0
8000
8000
ENDCHAR
STARTCHAR nonbreakingspace
ENCODING 160
SWIDTH 375 0
DWIDTH 14 0
BBX 1 1 0 0
BITMAP
00
ENDCHAR
STARTCHAR exclamdown
ENCODING 161
SWIDTH 149 0
DWIDTH 5 0
BBX 4 24 1 0
BITMAP
E0
F0
E0
00
00
00
00
40
40
40
40
40
40
40
40
40
40
40
40
40
40
40
40
C0
ENDCHAR
STARTCHAR cent
ENCODING 162
SWIDTH 449 0
DWIDTH 16 0
BBX 14 21 1 -2
BITMAP
0200
0300
0300
07C0
1FE0
3930
61B0
6190
C1A0
C180
C180
C180
C180
C180
E180
F180
7D80
3FFC
0FF8
0180
0100
ENDCHAR
STARTCHAR sterling
ENCODING 163
SWIDTH 758 0
DWIDTH 27 0
BBX 26 26 0 0
BITMAP
00003E00
0000FF80
0000C1C0
000180C0
00030040
00030040
00020000
00060000
00060000
000E0000
001FFC00
01FFFC00
07FE0000
000C0000
00080000
00080000
00180000
00100000
00100000
00300000
00700000
7F700000
FFFFC000
FFFFE000
7F800000
3E000000
ENDCHAR
STARTCHAR currency
ENCODING 164
SWIDTH 618 0
DWIDTH 22 0
BBX 20 18 1 1
BITMAP
C00000
607C70
7BFFC0
3FFF80
1E0380
1C00C0
180040
100040
100040
100040
1000C0
1800C0
1C0180
0E0700
1FFF00
39FB00
300180
2000C0
ENDCHAR
STARTCHAR yen
ENCODING 165
SWIDTH 389 0
DWIDTH 14 0
BBX 14 27 0 0
BITMAP
2000
7000
300C
381C
1818
1838
0830
0C70
0460
06E0
07C0
03C0
0380
0180
0180
FFE0
0FF0
0380
0300
7FE0
7FF0
0300
0300
0300
0300
0300
0700
ENDCHAR
STARTCHAR brokenbar
ENCODING 166
SWIDTH 117 0
DWIDTH 4 0
BBX 2 22 1 -1
BITMAP
80
C0
C0
C0
C0
C0
C0
C0
C0
40
00
C0
C0
C0
C0
C0
C0
C0
C0
C0
C0
40
ENDCHAR
STARTCHAR section
ENCODING 167
SWIDTH 514 0
DWIDTH 19 0
BBX 17 24 1 0
BITMAP
078000
3FF000
787C00
601E00
600600
600200
300000
1F8000
3FFE00
7F0F00
E00380
E00180
C00180
600380
7C0780
1FFE00
03FE00
000700
000300
400380
E00300
380700
1FFE00
07F800
ENDCHAR
STARTCHAR dieresis
ENCODING 168
SWIDTH 397 0
DWIDTH 14 0
BBX 10 4 2 15
BITMAP
6180
73C0
F3C0
4100
ENDCHAR
STARTCHAR copyright
ENCODING 169
SWIDTH 667 0
DWIDTH 24 0
BBX 23 20 1 0
BITMAP
03FC00
07FF00
0C0F80
1801E0
307CF0
60FE30
618618
630218
C6020C
C6000C
C60004
C60004
C60004
670006
63800C
31FF9C
3C3E78
1E03F0
0FFFC0
03FC00
ENDCHAR
STARTCHAR ordfeminine
ENCODING 170
SWIDTH 266 0
DWIDTH 10 0
BBX 8 10 1 8
BITMAP
30
38
04
02
7E
C6
83
81
C7
3C
ENDCHAR
STARTCHAR guillemotleft
ENCODING 171
SWIDTH 755 0
DWIDTH 27 0
BBX 25 17 0 0
BITMAP
00000180
00000700
00010E00
0007B800
001E7000
0039C000
00F38000
01CE0000
039C0000
0E380000
1C7C0000
307FF000
700FFE00
FF801F00
3FFC0300
01FE0000
00060000
ENDCHAR
STARTCHAR logicalnot
ENCODING 172
SWIDTH 369 0
DWIDTH 13 0
BBX 11 5 1 9
BITMAP
FFE0
F060
0020
0060
0060
ENDCHAR
STARTCHAR hyphen_
ENCODING 173
SWIDTH 375 0
DWIDTH 14 0
BBX 11 3 1 9
BITMAP
0100
FFE0
FFE0
ENDCHAR
STARTCHAR registered
ENCODING 174
SWIDTH 708 0
DWIDTH 25 0
BBX 23 21 1 0
BITMAP
01F000
07FE00
0E1F80
1803C0
3000E0
37FE70
6E0738
6C8198
49818C
C1838C
C1FF0C
C1F804
C0E006
60B006
60D806
70CE0C
38C338
1E01F0
0FDFE0
03FF00
004000
ENDCHAR
STARTCHAR macron
ENCODING 175
SWIDTH 287 0
DWIDTH 10 0
BBX 9 2 1 17
BITMAP
7F80
FF80
ENDCHAR
STARTCHAR degree
ENCODING 176
SWIDTH 254 0
DWIDTH 9 0
BBX 8 10 0 10
BITMAP
1C
36
42
81
81
81
83
42
6E
3C
ENDCHAR
STARTCHAR plusminus
ENCODING 177
SWIDTH 459 0
DWIDTH 17 0
BBX 15 16 1 1
BITMAP
0600
0600
0600
0300
0300
0380
1FFE
FFFE
E380
0380
0380
0180
0180
03FC
7FFE
7800
ENDCHAR
STARTCHAR twosuperior
ENCODING 178
SWIDTH 296 0
DWIDTH 11 0
BBX 9 12 0 8
BITMAP
0600
0B00
0900
0100
0100
0100
0100
0100
0200
F200
7E00
3380
ENDCHAR
STARTCHAR threesuperior
ENCODING 179
SWIDTH 204 0
DWIDTH 7 0
BBX 7 12 0 10
BITMAP
78
CC
04
0C
38
78
0C
06
82
C2
62
3C
ENDCHAR
STARTCHAR acute
ENCODING 180
SWIDTH 180 0
DWIDTH 7 0
BBX 6 6 0 14
BITMAP
04
1C
38
70
E0
C0
ENDCHAR
STARTCHAR mu
ENCODING 181
SWIDTH 501 0
DWIDTH 18 0
BBX 18 19 0 -2
BITMAP
600000
600000
E00600
C00600
400600
600600
600600
600600
600600
700E00
700F00
781F00
5C3B00
5E7380
4FE180
43C180
4000C0
400000
400000
ENDCHAR
STARTCHAR paragraph
ENCODING 182
SWIDTH 413 0
DWIDTH 15 0
BBX 13 19 1 -1
BITMAP
3FE0
7FF0
FFF0
FFB0
FFB0
FFB0
FFB0
FFB8
63B8
01B8
01B8
01B8
01B8
01B8
01B8
01B0
01B0
01B0
0110
ENDCHAR
STARTCHAR periodcentered
ENCODING 183
SWIDTH 212 0
DWIDTH 8 0
BBX 4 4 2 6
BITMAP
F0
F0
F0
60
ENDCHAR
STARTCHAR cedilla
ENCODING 184
SWIDTH 445 0
DWIDTH 16 0
BBX 10 12 5 -11
BITMAP
4000
6000
6000
6000
3800
1F00
0180
00C0
40C0
F0C0
3F80
1F00
ENDCHAR
STARTCHAR onesuperior
ENCODING 185
SWIDTH 197 0
DWIDTH 7 0
BBX 7 14 -1 8
BITMAP
02
02
02
06
0E
1E
36
66
46
84
04
04
04
04
ENDCHAR
STARTCHAR ordmasculine
ENCODING 186
SWIDTH 254 0
DWIDTH 9 0
BBX 8 10 0 10
BITMAP
1C
36
42
81
81
81
83
42
6E
3C
ENDCHAR
STARTCHAR guillemotright
ENCODING 187
SWIDTH 659 0
DWIDTH 24 0
BBX 21 17 1 0
BITMAP
80E000
E07000
703E00
3E0FC0
0FE3F8
01F838
003838
003870
0070E0
00E1C0
01C380
078F00
0E1C00
1C7800
78E000
E0C000
C00000
ENDCHAR
STARTCHAR onequarter
ENCODING 188
SWIDTH 626 0
DWIDTH 23 0
BBX 20 28 1 -1
BITMAP
002000
002000
002000
042000
042000
046000
0C6000
0C4000
1C4000
2CC000
4CC000
C88000
088000
098000
099800
099000
093000
032030
032030
022060
023060
0631E0
061FE0
040420
0C0020
0C0020
080020
080000
ENDCHAR
STARTCHAR onehalf
ENCODING 189
SWIDTH 566 0
DWIDTH 20 0
BBX 19 27 0 -2
BITMAP
011800
031800
031000
031000
061000
0E3000
0E3000
1E2000
362000
666000
C66000
064380
0444C0
04C440
04C440
048040
058040
018040
018040
0100C0
030080
037180
027F00
067FE0
0610E0
040000
040000
ENDCHAR
STARTCHAR threequarters
ENCODING 190
SWIDTH 566 0
DWIDTH 20 0
BBX 19 28 0 -3
BITMAP
001000
001800
001800
001000
7C1000
441000
061000
0C3000
383000
7C2000
062C00
026800
416800
C15820
335020
1ED020
00D860
0088E0
018FE0
018720
018020
010020
030020
030020
030000
060000
060000
040000
ENDCHAR
STARTCHAR questiondown
ENCODING 191
SWIDTH 272 0
DWIDTH 10 0
BBX 9 27 1 0
BITMAP
E000
E000
0000
0000
0000
0000
0000
0000
0000
0000
FC00
1E00
0E00
0C00
1C00
3800
3800
7000
6000
E000
C000
C000
C000
C000
6080
3F80
0E00
ENDCHAR
STARTCHAR Agrave
ENCODING 192
SWIDTH 562 0
DWIDTH 20 0
BBX 18 33 1 0
BITMAP
010000
01C000
00E000
006000
000000
000000
07F000
0E7800
181C00
300C00
300600
200300
600300
600300
600180
600180
400180
400180
400080
4000C0
4001C0
FFFDC0
FFFFC0
6000C0
6000C0
6000C0
6000C0
6000C0
6000C0
6000C0
7000C0
3000C0
300080
ENDCHAR
STARTCHAR Aacute
ENCODING 193
SWIDTH 562 0
DWIDTH 20 0
BBX 18 34 1 0
BITMAP
008000
01C000
038000
060000
0C0000
080000
000000
07F000
0E7800
181C00
300C00
300600
200300
600300
600300
600180
600180
400180
400180
400080
4000C0
4001C0
FFFDC0
FFFFC0
6000C0
6000C0
6000C0
6000C0
6000C0
6000C0
6000C0
7000C0
3000C0
300080
ENDCHAR
STARTCHAR Acircumflex
ENCODING 194
SWIDTH 562 0
DWIDTH 20 0
BBX 18 35 1 0
BITMAP
018000
01C000
03E000
03F000
067000
1C3800
181800
000000
07F000
0E7800
181C00
300C00
300600
200300
600300
600300
600180
600180
400180
400180
400080
4000C0
4001C0
FFFDC0
FFFFC0
6000C0
6000C0
6000C0
6000C0
6000C0
6000C0
6000C0
7000C0
3000C0
300080
ENDCHAR
STARTCHAR Atilde
ENCODING 195
SWIDTH 562 0
DWIDTH 20 0
BBX 18 33 1 0
BITMAP
080800
1F0C00
31F800
20F000
200000
200000
07F000
0E7800
181C00
300C00
300600
200300
600300
600300
600180
600180
400180
400180
400080
4000C0
4001C0
FFFDC0
FFFFC0
6000C0
6000C0
6000C0
6000C0
6000C0
6000C0
6000C0
7000C0
3000C0
300080
ENDCHAR
STARTCHAR Adieresis
ENCODING 196
SWIDTH 562 0
DWIDTH 20 0
BBX 18 33 1 0
BITMAP
063000
0E3800
0F3800
041000
000000
000000
07F000
0E7800
181C00
300C00
300600
200300
600300
600300
600180
600180
400180
400180
400080
4000C0
4001C0
FFFDC0
FFFFC0
6000C0
6000C0
6000C0
6000C0
6000C0
6000C0
6000C0
7000C0
3000C0
300080
ENDCHAR
STARTCHAR Aring
ENCODING 197
SWIDTH 562 0
DWIDTH 20 0
BBX 18 33 1 0
BITMAP
01C000
066000
042000
042000
046000
03C000
07F000
0E7800
181C00
300C00
300600
200300
600300
600300
600180
600180
400180
400180
400080
4000C0
4001C0
FFFDC0
FFFFC0
6000C0
6000C0
6000C0
6000C0
6000C0
6000C0
6000C0
7000C0
3000C0
300080
ENDCHAR
STARTCHAR AE
ENCODING 198
SWIDTH 960 0
DWIDTH 35 0
BBX 33 27 1 0
BITMAP
07F0000000
0E78000000
181C000000
300C000000
3006000000
20037FFE00
60037FFF00
6003600000
6001E00000
6001E00000
4001E00000
4001E00000
4000E00000
4000E0FF00
4001FFF800
FFFDF80000
FFFFE00000
6000C00000
6000C00000
6000C00000
6000C00000
6000C00000
6000C00000
6000C00000
7000F1FF80
3000FFFF00
30009FF800
ENDCHAR
STARTCHAR Ccedilla
ENCODING 199
SWIDTH 515 0
DWIDTH 19 0
BBX 17 34 1 -11
BITMAP
00F800
03F800
079800
0E1800
1C1000
300000
300000
600000
400000
C00000
C00000
800000
800000
800000
800000
C00000
C00000
C00000
600000
600700
38FF80
1FFC00
0F8000
0C0000
0C0000
0C0000
070000
03F000
003800
001800
081800
0E1800
07F000
03E000
ENDCHAR
STARTCHAR Egrave
ENCODING 200
SWIDTH 524 0
DWIDTH 19 0
BBX 16 29 1 0
BITMAP
0300
0380
01C0
00E0
0000
0000
0000
FFFE
FFFF
C000
C000
C000
C000
C000
C000
C0FE
FFF8
FE00
C000
C000
C000
C000
C000
C000
C000
C000
C0FF
7FFF
3FF8
ENDCHAR
STARTCHAR Eacute
ENCODING 201
SWIDTH 524 0
DWIDTH 19 0
BBX 16 29 1 0
BITMAP
0040
00C0
0380
0700
0600
0400
0000
FFFE
FFFF
C000
C000
C000
C000
C000
C000
C0FE
FFF8
FE00
C000
C000
C000
C000
C000
C000
C000
C000
C0FF
7FFF
3FF8
ENDCHAR
STARTCHAR Ecircumflex
ENCODING 202
SWIDTH 524 0
DWIDTH 19 0
BBX 16 31 1 0
BITMAP
00C0
01E0
01E0
03F0
0738
0E18
0C18
0000
0000
FFFE
FFFF
C000
C000
C000
C000
C000
C000
C0FE
FFF8
FE00
C000
C000
C000
C000
C000
C000
C000
C000
C0FF
7FFF
3FF8
ENDCHAR
STARTCHAR Edieresis
ENCODING 203
SWIDTH 524 0
DWIDTH 19 0
BBX 16 28 1 0
BITMAP
0430
0E78
0E78
0420
0000
0000
FFFE
FFFF
C000
C000
C000
C000
C000
C000
C0FE
FFF8
FE00
C000
C000
C000
C000
C000
C000
C000
C000
C0FF
7FFF
3FF8
ENDCHAR
STARTCHAR Igrave
ENCODING 204
SWIDTH 167 0
DWIDTH 6 0
BBX 6 28 -1 0
BITMAP
C0
70
38
18
00
00
00
00
20
20
30
30
30
30
18
18
18
18
18
0C
0C
0C
0C
0C
0C
0C
0C
04
ENDCHAR
STARTCHAR Iacute
ENCODING 205
SWIDTH 167 0
DWIDTH 6 0
BBX 6 27 -1 0
BITMAP
08
1C
38
70
C0
80
00
20
20
30
30
30
30
18
18
18
18
18
0C
0C
0C
0C
0C
0C
0C
0C
04
ENDCHAR
STARTCHAR Icircumflex
ENCODING 206
SWIDTH 167 0
DWIDTH 6 0
BBX 10 31 -2 0
BITMAP
0C00
0E00
0F00
1F80
3BC0
71C0
E0C0
0000
0000
0000
0000
1000
1000
1800
1800
1800
1800
0C00
0C00
0C00
0C00
0C00
0600
0600
0600
0600
0600
0600
0600
0600
0200
ENDCHAR
STARTCHAR Idieresis
ENCODING 207
SWIDTH 167 0
DWIDTH 6 0
BBX 9 25 -4 0
BITMAP
6180
F380
F380
4100
0000
0400
0400
0600
0600
0600
0600
0300
0300
0300
0300
0300
0180
0180
0180
0180
0180
0180
0180
0180
0080
ENDCHAR
STARTCHAR Eth
ENCODING 208
SWIDTH 741 0
DWIDTH 27 0
BBX 25 23 1 0
BITMAP
07000000
7FF80000
FC7F0000
8077C000
0070E000
00307800
00301C00
00300C00
00300600
00300700
00FFC300
01FFE300
01980180
00180180
00180180
00180380
00180300
00180700
00180E00
00181E00
00E07C00
00FFF800
007FE000
ENDCHAR
STARTCHAR Ntilde
ENCODING 209
SWIDTH 609 0
DWIDTH 22 0
BBX 20 25 1 0
BITMAP
020100
07C300
0C7E00
0C3C00
080000
080000
C00000
C00100
600380
6001C0
6001C0
7000C0
7000E0
700060
780060
F80030
CC0030
CC0030
C60030
C30030
C38070
C1C0E0
C0FFC0
C07F80
C00E00
ENDCHAR
STARTCHAR Ograve
ENCODING 210
SWIDTH 609 0
DWIDTH 22 0
BBX 20 25 1 0
BITMAP
00C000
006000
007000
001800
000000
000000
000000
000000
1FC000
3FF800
603E00
C00F00
C00380
C001C0
8000C0
800060
800060
C00030
C00030
600030
700070
3800E0
1E03C0
0FFF00
03F800
ENDCHAR
STARTCHAR Oacute
ENCODING 211
SWIDTH 609 0
DWIDTH 22 0
BBX 20 25 1 0
BITMAP
001000
003000
00E000
01C000
018000
030000
000000
000000
1FC000
3FF800
603E00
C00F00
C00380
C001C0
8000C0
800060
800060
C00030
C00030
600030
700070
3800E0
1E03C0
0FFF00
03F800
ENDCHAR
STARTCHAR Ocircumflex
ENCODING 212
SWIDTH 609 0
DWIDTH 22 0
BBX 20 27 1 0
BITMAP
030000
038000
07C000
07E000
0CE000
387000
303000
000000
000000
000000
1FC000
3FF800
603E00
C00F00
C00380
C001C0
8000C0
800060
800060
C00030
C00030
600030
700070
3800E0
1E03C0
0FFF00
03F800
ENDCHAR
STARTCHAR Otilde
ENCODING 213
SWIDTH 609 0
DWIDTH 22 0
BBX 20 24 1 0
BITMAP
080400
1F0E00
31D800
30F000
200000
200000
000000
1FC000
3FF800
603E00
C00F00
C00380
C001C0
8000C0
800060
800060
C00030
C00030
600030
700070
3800E0
1E03C0
0FFF00
03F800
ENDCHAR
STARTCHAR Odieresis
ENCODING 214
SWIDTH 609 0
DWIDTH 22 0
BBX 20 24 1 0
BITMAP
030C00
079C00
039E00
020800
000000
000000
000000
1FC000
3FF800
603E00
C00F00
C00380
C001C0
8000C0
800060
800060
C00030
C00030
600030
700070
3800E0
1E03C0
0FFF00
03F800
ENDCHAR
STARTCHAR multiply
ENCODING 215
SWIDTH 448 0
DWIDTH 16 0
BBX 10 10 2 2
BITMAP
4040
E0C0
71C0
3F00
1E00
1E00
1F00
3380
61C0
4100
ENDCHAR
STARTCHAR Oslash
ENCODING 216
SWIDTH 609 0
DWIDTH 22 0
BBX 20 27 1 -4
BITMAP
000C00
000C00
000800
001800
001800
001800
1FF000
3FF800
603C00
C06F00
C06380
C061C0
80E0C0
80C060
80C060
C18030
C18030
638030
730070
3B00E0
1F03C0
0FFF00
0FF800
0C0000
0C0000
180000
080000
ENDCHAR
STARTCHAR Ugrave
ENCODING 217
SWIDTH 571 0
DWIDTH 21 0
BBX 19 25 1 0
BITMAP
018000
00E000
007000
003000
000000
200000
600200
C00300
C00700
C00700
C00300
C00300
C00300
C00300
C00300
C00180
400180
600180
6001C0
6003C0
3007C0
381EE0
1E7860
0FF060
07C000
ENDCHAR
STARTCHAR Uacute
ENCODING 218
SWIDTH 571 0
DWIDTH 21 0
BBX 19 25 1 0
BITMAP
002000
006000
01C000
038000
030000
220000
600200
C00300
C00700
C00700
C00300
C00300
C00300
C00300
C00300
C00180
400180
600180
6001C0
6003C0
3007C0
381EE0
1E7860
0FF060
07C000
ENDCHAR
STARTCHAR Ucircumflex
ENCODING 219
SWIDTH 571 0
DWIDTH 21 0
BBX 19 31 1 0
BITMAP
006000
00E000
00F000
01F800
03BC00
071C00
0E0C00
000000
000000
000000
000000
200000
600200
C00300
C00700
C00700
C00300
C00300
C00300
C00300
C00300
C00180
400180
600180
6001C0
6003C0
3007C0
381EE0
1E7860
0FF060
07C000
ENDCHAR
STARTCHAR Udieresis
ENCODING 220
SWIDTH 571 0
DWIDTH 21 0
BBX 19 24 1 0
BITMAP
071800
073C00
073C00
021000
200000
600200
C00300
C00700
C00700
C00300
C00300
C00300
C00300
C00300
C00180
400180
600180
6001C0
6003C0
3007C0
381EE0
1E7860
0FF060
07C000
ENDCHAR
STARTCHAR Yacute
ENCODING 221
SWIDTH 403 0
DWIDTH 15 0
BBX 13 31 1 -1
BITMAP
0020
00E0
01C0
0380
0700
0600
0000
8000
8018
C018
E018
6018
7030
3830
1E70
07E0
03E0
00E0
00C0
00C0
0180
0180
0180
0180
0300
0300
0300
0300
0300
0300
0200
ENDCHAR
STARTCHAR Thorn
ENCODING 222
SWIDTH 497 0
DWIDTH 18 0
BBX 15 28 2 -6
BITMAP
C000
C000
C000
C000
C000
C000
C000
C000
C000
C000
FF80
FFE0
E0F8
E01C
C00E
C006
C006
E006
F00E
F81E
5FFC
47F0
4000
6000
6000
6000
6000
2000
ENDCHAR
STARTCHAR germandbls
ENCODING 223
SWIDTH 590 0
DWIDTH 21 0
BBX 20 30 1 -5
BITMAP
7E0000
FF8000
F9E000
C07000
C03000
E01800
E03000
E03000
60E000
67C000
67E000
63F800
607C00
600F00
600380
2001C0
2000C0
200060
300060
300070
300070
3001E0
31FFC0
31FE00
300000
300000
300000
300000
700000
100000
ENDCHAR
STARTCHAR agrave
ENCODING 224
SWIDTH 505 0
DWIDTH 18 0
BBX 16 23 1 0
BITMAP
0600
0300
0180
00C0
0000
0780
0FE0
0CF0
0038
0018
000C
000E
1FEE
3FFE
701F
C00F
C007
8003
C001
E000
7C7F
3FFE
07F0
ENDCHAR
STARTCHAR aacute
ENCODING 225
SWIDTH 505 0
DWIDTH 18 0
BBX 16 25 1 0
BITMAP
0040
00C0
0380
0700
0600
0400
0000
0780
0FE0
0CF0
0038
0018
000C
000E
1FEE
3FFE
701F
C00F
C007
8003
C001
E000
7C7F
3FFE
07F0
ENDCHAR
STARTCHAR acircumflex
ENCODING 226
SWIDTH 505 0
DWIDTH 18 0
BBX 16 26 1 0
BITMAP
0180
01C0
01E0
03F0
0778
0E38
1C18
0000
0780
0FE0
0CF0
0038
0018
000C
000E
1FEE
3FFE
701F
C00F
C007
8003
C001
E000
7C7F
3FFE
07F0
ENDCHAR
STARTCHAR atilde
ENCODING 227
SWIDTH 505 0
DWIDTH 18 0
BBX 16 25 1 0
BITMAP
0808
3E0C
33B8
60F0
2000
2000
0000
0780
0FE0
0CF0
0038
0018
000C
000E
1FEE
3FFE
701F
C00F
C007
8003
C001
E000
7C7F
3FFE
07F0
ENDCHAR
STARTCHAR adieresis
ENCODING 228
SWIDTH 505 0
DWIDTH 18 0
BBX 16 23 1 0
BITMAP
0C30
0E78
0E78
0420
0000
0780
0FE0
0CF0
0038
0018
000C
000E
1FEE
3FFE
701F
C00F
C007
8003
C001
E000
7C7F
3FFE
07F0
ENDCHAR
STARTCHAR aring
ENCODING 229
SWIDTH 505 0
DWIDTH 18 0
BBX 16 23 1 0
BITMAP
03C0
0420
0420
0420
07C0
0780
0FE0
0CF0
0038
0018
000C
000E
1FEE
3FFE
701F
C00F
C007
8003
C001
E000
7C7F
3FFE
07F0
ENDCHAR
STARTCHAR ae
ENCODING 230
SWIDTH 881 0
DWIDTH 32 0
BBX 30 19 1 -1
BITMAP
07801E00
0FE07F80
0CF0E180
003980C0
001980C0
000F00C0
000F00C0
1FEF01C0
3FFE0780
701FFF00
C00FFC00
C0070000
80030000
C0030000
E0018000
7C7FE000
3FFE7E7C
07F03FF8
000007C0
ENDCHAR
STARTCHAR ccedilla
ENCODING 231
SWIDTH 449 0
DWIDTH 16 0
BBX 14 27 1 -11
BITMAP
07C0
1FE0
3870
6030
6010
C020
C000
C000
C000
C000
C000
E000
7000
7C00
3FFC
0FF8
0C00
0C00
0C00
0780
01F0
0038
0018
0C18
0E18
07F0
01C0
ENDCHAR
STARTCHAR egrave
ENCODING 232
SWIDTH 515 0
DWIDTH 19 0
BBX 17 24 1 0
BITMAP
0C0000
070000
038000
018000
000000
038000
0FE000
3C6000
303000
603000
C03000
C03000
C07000
C0E000
F7C000
FF0000
C00000
C00000
E00000
600000
380000
1F0380
0FFE00
03F800
ENDCHAR
STARTCHAR eacute
ENCODING 233
SWIDTH 515 0
DWIDTH 19 0
BBX 17 26 1 0
BITMAP
008000
01C000
038000
070000
0C0000
080000
000000
038000
0FE000
3C6000
303000
603000
C03000
C03000
C07000
C0E000
F7C000
FF0000
C00000
C00000
E00000
600000
380000
1F0380
0FFE00
03F800
ENDCHAR
STARTCHAR ecircumflex
ENCODING 234
SWIDTH 515 0
DWIDTH 19 0
BBX 17 26 1 0
BITMAP
00C000
01C000
01E000
03F000
077800
0E3800
1C1800
038000
0FE000
3C6000
303000
603000
C03000
C03000
C07000
C0E000
F7C000
FF0000
C00000
C00000
E00000
600000
380000
1F0380
0FFE00
03F800
ENDCHAR
STARTCHAR edieresis
ENCODING 235
SWIDTH 515 0
DWIDTH 19 0
BBX 17 23 1 0
BITMAP
0C6000
1C7000
1E7000
082000
038000
0FE000
3C6000
303000
603000
C03000
C03000
C07000
C0E000
F7C000
FF0000
C00000
C00000
E00000
600000
380000
1F0380
0FFE00
03F800
ENDCHAR
STARTCHAR igrave
ENCODING 236
SWIDTH 174 0
DWIDTH 6 0
BBX 5 21 1 0
BITMAP
C0
E0
30
10
00
60
60
60
60
60
60
60
70
70
30
30
30
38
38
38
10
ENDCHAR
STARTCHAR iacute
ENCODING 237
SWIDTH 174 0
DWIDTH 6 0
BBX 6 23 0 0
BITMAP
08
18
30
E0
C0
80
00
30
30
30
30
30
30
30
38
38
18
18
18
1C
1C
1C
08
ENDCHAR
STARTCHAR icircumflex
ENCODING 238
SWIDTH 174 0
DWIDTH 6 0
BBX 10 26 -2 0
BITMAP
0E00
0E00
0F00
1F80
3BC0
71C0
E0C0
0000
0000
0000
0C00
0C00
0C00
0C00
0C00
0C00
0C00
0E00
0E00
0600
0600
0600
0700
0700
0700
0200
ENDCHAR
STARTCHAR idieresis
ENCODING 239
SWIDTH 174 0
DWIDTH 6 0
BBX 9 21 -2 0
BITMAP
6180
F380
F380
0000
0000
0C00
0C00
0C00
0C00
0C00
0C00
0C00
0E00
0E00
0600
0600
0600
0700
0700
0700
0200
ENDCHAR
STARTCHAR eth
ENCODING 240
SWIDTH 407 0
DWIDTH 15 0
BBX 13 19 1 0
BITMAP
F800
FE00
8F18
03F8
03F0
0FE0
0E60
0030
0630
3FF8
7078
E018
C018
C018
C018
C018
E030
7FF0
1FE0
ENDCHAR
STARTCHAR ntilde
ENCODING 241
SWIDTH 459 0
DWIDTH 17 0
BBX 15 23 1 0
BITMAP
2010
7C38
C760
C3C0
C000
8000
0000
03C0
0FE0
F870
F038
E018
E01C
C00C
C00C
C00C
E00E
E006
6006
6006
7006
3006
3004
ENDCHAR
STARTCHAR ograve
ENCODING 242
SWIDTH 487 0
DWIDTH 18 0
BBX 16 20 1 0
BITMAP
0300
0380
01C0
00E0
0000
03E0
1FF8
3C7C
701C
E006
C006
8002
8007
8006
C006
C00E
601C
787C
3FF0
0FC0
ENDCHAR
STARTCHAR oacute
ENCODING 243
SWIDTH 487 0
DWIDTH 18 0
BBX 16 22 1 0
BITMAP
0040
00C0
0380
0700
0600
0400
0000
03E0
1FF8
3C7C
701C
E006
C006
8002
8007
8006
C006
C00E
601C
787C
3FF0
0FC0
ENDCHAR
STARTCHAR ocircumflex
ENCODING 244
SWIDTH 487 0
DWIDTH 18 0
BBX 16 23 1 0
BITMAP
0180
03C0
03C0
07E0
0E70
1C30
1830
0000
03E0
1FF8
3C7C
701C
E006
C006
8002
8007
8006
C006
C00E
601C
787C
3FF0
0FC0
ENDCHAR
STARTCHAR otilde
ENCODING 245
SWIDTH 487 0
DWIDTH 18 0
BBX 16 20 1 0
BITMAP
0808
1E0C
33B8
20F0
2000
23E0
1FF8
3C7C
701C
E006
C006
8002
8007
8006
C006
C00E
601C
787C
3FF0
0FC0
ENDCHAR
STARTCHAR odieresis
ENCODING 246
SWIDTH 487 0
DWIDTH 18 0
BBX 16 19 1 0
BITMAP
0C30
1E70
1E70
0820
03E0
1FF8
3C7C
701C
E006
C006
8002
8007
8006
C006
C00E
601C
787C
3FF0
0FC0
ENDCHAR
STARTCHAR divide
ENCODING 247
SWIDTH 335 0
DWIDTH 12 0
BBX 10 9 1 3
BITMAP
0C00
0C00
0400
0700
7FC0
E000
0000
0000
0C00
ENDCHAR
STARTCHAR oslash
ENCODING 248
SWIDTH 487 0
DWIDTH 18 0
BBX 16 17 1 0
BITMAP
0010
0018
03F0
0FF8
3C7C
70FC
E0CE
C1C6
C386
8303
8706
CE06
CC0E
FC1C
787C
7FF0
6FC0
ENDCHAR
STARTCHAR ugrave
ENCODING 249
SWIDTH 501 0
DWIDTH 18 0
BBX 18 24 0 0
BITMAP
060000
070000
038000
01C000
000000
000000
000000
400000
600000
600400
C00600
400600
600600
600600
600600
600600
600600
300F00
301F00
183B00
1C7180
0FE180
03C180
0001C0
ENDCHAR
STARTCHAR uacute
ENCODING 250
SWIDTH 501 0
DWIDTH 18 0
BBX 18 25 0 0
BITMAP
002000
006000
01C000
038000
030000
020000
000000
000000
400000
600000
600400
C00600
400600
600600
600600
600600
600600
600600
300F00
301F00
183B00
1C7180
0FE180
03C180
0001C0
ENDCHAR
STARTCHAR ucircumflex
ENCODING 251
SWIDTH 501 0
DWIDTH 18 0
BBX 18 26 0 0
BITMAP
00C000
00E000
00F000
01F800
033C00
071C00
0C0C00
000000
000000
400000
600000
600400
C00600
400600
600600
600600
600600
600600
600600
300F00
301F00
183B00
1C7180
0FE180
03C180
0001C0
ENDCHAR
STARTCHAR udieresis
ENCODING 252
SWIDTH 501 0
DWIDTH 18 0
BBX 18 22 0 0
BITMAP
0C3000
0E7800
0E7800
042000
000000
400000
600000
600400
C00600
400600
600600
600600
600600
600600
600600
300F00
301F00
183B00
1C7180
0FE180
03C180
0001C0
ENDCHAR
STARTCHAR yacute
ENCODING 253
SWIDTH 487 0
DWIDTH 18 0
BBX 16 42 1 -18
BITMAP
0040
00C0
0380
0700
0600
0C00
0000
0000
8004
8004
8004
8006
8006
C006
C006
C006
C006
6007
6007
300F
183F
0FF3
07C3
0003
0003
0003
0003
0003
0003
0003
0003
0003
0003
0006
4006
6006
7006
380C
1E1C
0FF8
03F0
0040
ENDCHAR
STARTCHAR thorn
ENCODING 254
SWIDTH 520 0
DWIDTH 19 0
BBX 17 25 1 -7
BITMAP
600000
600000
400000
C00000
C00000
CFF800
FFFE00
F80700
E00300
E00180
E00180
E00180
C00380
FC0780
FFFF00
CFFC00
C00000
C00000
C00000
C00000
C00000
C00000
C00000
C00000
C00000
ENDCHAR
STARTCHAR ydieresis
ENCODING 255
SWIDTH 487 0
DWIDTH 18 0
BBX 16 39 1 -18
BITMAP
1C60
1CF0
1CF0
0840
0000
8004
8004
8004
8006
8006
C006
C006
C006
C006
6007
6007
300F
183F
0FF3
07C3
0003
0003
0003
0003
0003
0003
0003
0003
0003
0003
0006
4006
6006
7006
380C
1E1C
0FF8
03F0
0040
ENDCHAR
STARTCHAR Amacron
ENCODING 256
SWIDTH 562 0
DWIDTH 20 0
BBX 18 32 1 0
BITMAP
0FF000
1FF800
000000
000000
000000
07F000
0E7800
181C00
300C00
300600
200300
600300
600300
600180
600180
400180
400180
400080
4000C0
4001C0
FFFDC0
FFFFC0
6000C0
6000C0
6000C0
6000C0
6000C0
6000C0
6000C0
7000C0
3000C0
300080
ENDCHAR
STARTCHAR amacron
ENCODING 257
SWIDTH 505 0
DWIDTH 18 0
BBX 16 23 1 0
BITMAP
0FF0
1FF0
0000
0000
0000
0780
0FE0
0CF0
0038
0018
000C
000E
1FEE
3FFE
701F
C00F
C007
8003
C001
E000
7C7F
3FFE
07F0
ENDCHAR
STARTCHAR Abreve
ENCODING 258
SWIDTH 562 0
DWIDTH 20 0
BBX 18 34 1 0
BITMAP
021800
021000
01F000
008000
000000
000000
000000
07F000
0E7800
181C00
300C00
300600
200300
600300
600300
600180
600180
400180
400180
400080
4000C0
4001C0
FFFDC0
FFFFC0
6000C0
6000C0
6000C0
6000C0
6000C0
6000C0
6000C0
7000C0
3000C0
300080
ENDCHAR
STARTCHAR abreve
ENCODING 259
SWIDTH 505 0
DWIDTH 18 0
BBX 16 23 1 0
BITMAP
0860
0C60
07C0
0200
0000
0780
0FE0
0CF0
0038
0018
000C
000E
1FEE
3FFE
701F
C00F
C007
8003
C001
E000
7C7F
3FFE
07F0
ENDCHAR
STARTCHAR Aogonek
ENCODING 260
SWIDTH 562 0
DWIDTH 20 0
BBX 19 32 1 -5
BITMAP
07F000
0E7800
181C00
300C00
300600
200300
600300
600300
600180
600180
400180
400180
400080
4000C0
4001C0
FFFDC0
FFFFC0
6000C0
6000C0
6000C0
6000C0
6000C0
6000C0
6000C0
7000C0
3001C0
300780
000600
000C00
000C00
000E00
0007E0
ENDCHAR
STARTCHAR aogonek
ENCODING 261
SWIDTH 505 0
DWIDTH 18 0
BBX 16 22 1 -4
BITMAP
0780
0FE0
0CF0
0038
0018
000C
000E
1FEE
3FFE
701F
C00F
C007
8003
C001
E000
7C7F
3FFE
07F0
0060
0060
0070
003F
ENDCHAR
STARTCHAR Cacute
ENCODING 262
SWIDTH 515 0
DWIDTH 19 0
BBX 17 30 1 0
BITMAP
001000
003000
00E000
01C000
018000
010000
000000
00F800
03F800
079800
0E1800
1C1000
300000
300000
600000
400000
C00000
C00000
800000
800000
800000
800000
C00000
C00000
C00000
600000
600700
38FF80
1FFC00
0F8000
ENDCHAR
STARTCHAR cacute
ENCODING 263
SWIDTH 449 0
DWIDTH 16 0
BBX 14 24 1 0
BITMAP
0040
00E0
01C0
0380
0600
0400
0000
0000
07C0
1FE0
3030
6030
6010
C020
C000
C000
C000
C000
C000
E000
7000
7C00
1FFC
07F8
ENDCHAR
STARTCHAR Ccircumflex
ENCODING 264
SWIDTH 515 0
DWIDTH 19 0
BBX 17 31 1 0
BITMAP
00C000
01C000
01E000
03F000
077800
0E3800
1C1800
000000
00F800
03F800
079800
0E1800
1C1000
300000
300000
600000
400000
C00000
C00000
800000
800000
800000
800000
C00000
C00000
C00000
600000
600700
38FF80
1FFC00
0F8000
ENDCHAR
STARTCHAR ccircumflex
ENCODING 265
SWIDTH 449 0
DWIDTH 16 0
BBX 14 26 1 0
BITMAP
0300
0380
03C0
07E0
0EF0
1C70
3830
0000
0000
0000
07C0
1FE0
3030
6030
6010
C020
C000
C000
C000
C000
C000
E000
7000
7C00
1FFC
07F8
ENDCHAR
STARTCHAR Cdotaccent
ENCODING 266
SWIDTH 515 0
DWIDTH 19 0
BBX 17 28 1 0
BITMAP
008000
01C000
00C000
000000
000000
00F800
03F800
079800
0E1800
1C1000
300000
300000
600000
400000
C00000
C00000
800000
800000
800000
800000
C00000
C00000
C00000
600000
600700
38FF80
1FFC00
0F8000
ENDCHAR
STARTCHAR cdotaccent
ENCODING 267
SWIDTH 449 0
DWIDTH 16 0
BBX 14 20 1 0
BITMAP
0300
0300
0300
0000
07C0
1FE0
3030
6030
6010
C020
C000
C000
C000
C000
C000
E000
7000
7C00
1FFC
07F8
ENDCHAR
STARTCHAR Ccaron
ENCODING 268
SWIDTH 515 0
DWIDTH 19 0
BBX 17 29 1 0
BITMAP
060600
039C00
00F800
007000
000000
000000
00F800
03F800
079800
0E1800
1C1000
300000
300000
600000
400000
C00000
C00000
800000
800000
800000
800000
C00000
C00000
C00000
600000
600700
38FF80
1FFC00
0F8000
ENDCHAR
STARTCHAR ccaron
ENCODING 269
SWIDTH 449 0
DWIDTH 16 0
BBX 14 22 1 0
BITMAP
3830
0CF0
07C0
0380
0000
0000
07C0
1FE0
3030
6030
6010
C020
C000
C000
C000
C000
C000
E000
7000
7C00
1FFC
07F8
ENDCHAR
STARTCHAR Dcaron
ENCODING 270
SWIDTH 741 0
DWIDTH 27 0
BBX 25 27 1 0
BITMAP
00C18000
01738000
001F0000
001C0000
07000000
7FF80000
FC7F0000
8077C000
0030E000
00307800
00301C00
00300C00
00300600
00100700
00180300
00180300
00180180
00180180
00180180
00180380
00180300
00180700
00180E00
00081E00
00E07C00
00FFF800
007FE000
ENDCHAR
STARTCHAR dcaron
ENCODING 271
SWIDTH 582 0
DWIDTH 21 0
BBX 19 27 1 0
BITMAP
000040
001060
001860
001C60
001C60
001C60
000E60
000E20
000E00
000E00
000600
1F0700
3FC700
7FF700
707F00
E01F00
E00F00
C00700
C00700
C00F00
C00F00
C01F00
E03B80
607380
7BE180
3FC100
1F0000
ENDCHAR
STARTCHAR Dcroat
ENCODING 272
SWIDTH 741 0
DWIDTH 27 0
BBX 25 23 1 0
BITMAP
07000000
7FF80000
FC7F0000
8077C000
0030E000
00307800
00301C00
00300C00
00300600
00100700
00180300
01FF0300
01FF0180
02180180
00180180
00180380
00180300
00180700
00180E00
00081E00
00E07C00
00FFF800
007FE000
ENDCHAR
STARTCHAR dcroat
ENCODING 273
SWIDTH 524 0
DWIDTH 19 0
BBX 18 26 1 0
BITMAP
001000
001800
001C00
001C00
001C00
01FFC0
01FFC0
060E00
000E00
000600
1F8700
3FC700
7DF700
703F00
E01F00
C00F00
C00700
C00700
C00F00
C00F00
C01F00
E03B80
607380
7BE180
3FC100
1F0000
ENDCHAR
STARTCHAR Emacron
ENCODING 274
SWIDTH 524 0
DWIDTH 19 0
BBX 16 26 1 0
BITMAP
0FF8
0FF8
1000
0000
FFFE
FFFF
C000
C000
C000
C000
C000
C000
C0FE
FFF8
FE00
C000
C000
C000
C000
C000
C000
C000
C000
C0FF
7FFF
3FF8
ENDCHAR
STARTCHAR emacron
ENCODING 275
SWIDTH 515 0
DWIDTH 19 0
BBX 17 23 1 0
BITMAP
0FF800
1FF800
000000
000000
038000
0FE000
3C6000
303000
603000
C03000
C03000
C07000
C0E000
F7C000
FF0000
C00000
C00000
E00000
600000
380000
1F0380
0FFE00
03F800
ENDCHAR
STARTCHAR Ebreve
ENCODING 276
SWIDTH 524 0
DWIDTH 19 0
BBX 16 28 1 0
BITMAP
0420
0460
07C0
0100
0000
0000
FFFE
FFFF
C000
C000
C000
C000
C000
C000
C0FE
FFF8
FE00
C000
C000
C000
C000
C000
C000
C000
C000
C0FF
7FFF
3FF8
ENDCHAR
STARTCHAR ebreve
ENCODING 277
SWIDTH 515 0
DWIDTH 19 0
BBX 17 24 1 0
BITMAP
021000
021000
03E000
008000
000000
038000
0FE000
3C6000
303000
603000
C03000
C03000
C07000
C0E000
F7C000
FF0000
C00000
C00000
E00000
600000
380000
1F0380
0FFE00
03F800
ENDCHAR
STARTCHAR Edotaccent
ENCODING 278
SWIDTH 524 0
DWIDTH 19 0
BBX 16 27 1 0
BITMAP
0180
0180
0180
0000
0000
FFFE
FFFF
C000
C000
C000
C000
C000
C000
C0FE
FFF8
FE00
C000
C000
C000
C000
C000
C000
C000
C000
C0FF
7FFF
3FF8
ENDCHAR
STARTCHAR edotaccent
ENCODING 279
SWIDTH 515 0
DWIDTH 19 0
BBX 17 24 1 0
BITMAP
030000
030000
030000
000000
000000
038000
0FE000
3C6000
303000
603000
C03000
C03000
C07000
C0E000
F7C000
FF0000
C00000
C00000
E00000
600000
380000
1F0380
0FFE00
03F800
ENDCHAR
STARTCHAR Eogonek
ENCODING 280
SWIDTH 524 0
DWIDTH 19 0
BBX 16 27 1 -5
BITMAP
FFFE
FFFF
C000
C000
C000
C000
C000
C000
C0FE
FFF8
FE00
C000
C000
C000
C000
C000
C000
C000
C000
C0FF
7FFF
3FF8
0060
00C0
00C0
0070
003F
ENDCHAR
STARTCHAR eogonek
ENCODING 281
SWIDTH 515 0
DWIDTH 19 0
BBX 17 24 1 -5
BITMAP
038000
0FE000
3C6000
303000
603000
C03000
C03000
C07000
C0E000
F7C000
FF0000
C00000
C00000
E00000
600000
380000
1F0380
0FFE00
03F800
00E000
00C000
00C000
00E000
007E00
ENDCHAR
STARTCHAR Ecaron
ENCODING 282
SWIDTH 524 0
DWIDTH 19 0
BBX 16 27 1 0
BITMAP
0C18
0738
01F0
00C0
0000
FFFE
FFFF
C000
C000
C000
C000
C000
C000
C0FE
FFF8
FE00
C000
C000
C000
C000
C000
C000
C000
C000
C0FF
7FFF
3FF8
ENDCHAR
STARTCHAR ecaron
ENCODING 283
SWIDTH 515 0
DWIDTH 19 0
BBX 17 25 1 0
BITMAP
0C1800
173800
03F000
01C000
000000
000000
038000
0FE000
3C6000
303000
603000
C03000
C03000
C07000
C0E000
F7C000
FF0000
C00000
C00000
E00000
600000
380000
1F0380
0FFE00
03F800
ENDCHAR
STARTCHAR Gcircumflex
ENCODING 284
SWIDTH 571 0
DWIDTH 21 0
BBX 19 30 1 -2
BITMAP
001C00
001C00
001E00
003F00
007780
00E380
01C180
000000
000000
000F00
007F80
01F0C0
038000
0E0000
1C0000
380000
300000
608000
60FFC0
C07FC0
C000C0
C000C0
C000C0
4001C0
6003C0
380FC0
1FFCC0
0780C0
0000C0
0000E0
ENDCHAR
STARTCHAR gcircumflex
ENCODING 285
SWIDTH 366 0
DWIDTH 13 0
BBX 18 44 -5 -18
BITMAP
001800
001C00
003E00
007E00
00E700
01C380
018180
000000
000000
000000
000000
000C00
003E00
007300
00C180
018180
018180
030180
030180
030180
0301C0
0303C0
0387C0
01FFC0
00F9C0
0001C0
0001C0
0000C0
0000C0
0000C0
0000C0
0000C0
0000C0
0000C0
4000C0
C000C0
C000C0
6000C0
7001C0
3C0180
1F8380
07FF00
01FE00
000800
ENDCHAR
STARTCHAR Gbreve
ENCODING 286
SWIDTH 571 0
DWIDTH 21 0
BBX 19 25 1 -2
BITMAP
021800
021000
01F000
00C000
000F00
007F80
01F0C0
038000
0E0000
1C0000
380000
300000
608000
60FFC0
C07FC0
C000C0
C000C0
C000C0
4001C0
6003C0
380FC0
1FFCC0
0780C0
0000C0
0000E0
ENDCHAR
STARTCHAR gbreve
ENCODING 287
SWIDTH 366 0
DWIDTH 13 0
BBX 18 38 -5 -18
BITMAP
008600
00C600
007C00
002000
000000
000C00
003E00
007300
00C180
018180
018180
030180
030180
030180
0301C0
0303C0
0387C0
01FFC0
00F9C0
0001C0
0001C0
0000C0
0000C0
0000C0
0000C0
0000C0
0000C0
0000C0
4000C0
C000C0
C000C0
6000C0
7001C0
3C0180
1F8380
07FF00
01FE00
000800
ENDCHAR
STARTCHAR Gdotaccent
ENCODING 288
SWIDTH 571 0
DWIDTH 21 0
BBX 19 25 1 -2
BITMAP
003000
003800
001800
000000
000F00
007F80
01F0C0
038000
0E0000
1C0000
380000
300000
608000
60FFC0
C07FC0
C000C0
C000C0
C000C0
4001C0
6003C0
380FC0
1FFCC0
0780C0
0000C0
0000E0
ENDCHAR
STARTCHAR gdotaccent
ENCODING 289
SWIDTH 366 0
DWIDTH 13 0
BBX 18 38 -5 -18
BITMAP
003000
003800
003800
000000
000000
000C00
003E00
007300
00C180
018180
018180
030180
030180
030180
0301C0
0303C0
0387C0
01FFC0
00F9C0
0001C0
0001C0
0000C0
0000C0
0000C0
0000C0
0000C0
0000C0
0000C0
4000C0
C000C0
C000C0
6000C0
7001C0
3C0180
1F8380
07FF00
01FE00
000800
ENDCHAR
STARTCHAR Gcommaaccent
ENCODING 290
SWIDTH 571 0
DWIDTH 21 0
BBX 19 30 1 -11
BITMAP
000F00
007F80
01F0C0
038000
0E0000
1C0000
380000
300000
608000
60FFC0
C07FC0
C000C0
C000C0
C000C0
4001C0
6003C0
380FC0
1FFCC0
0780C0
0000C0
0000E0
000000
000000
00C000
00E000
006000
006000
00C000
00C000
00C000
ENDCHAR
STARTCHAR gcommaaccent
ENCODING 291
SWIDTH 366 0
DWIDTH 13 0
BBX 18 49 -5 -18
BITMAP
003000
003000
003000
003800
001800
001800
001800
001800
000000
000000
000000
000000
000000
000000
000000
000000
000C00
003E00
007300
00C180
018180
018180
030180
030180
030180
0301C0
0303C0
0387C0
01FFC0
00F9C0
0001C0
0001C0
0000C0
0000C0
0000C0
0000C0
0000C0
0000C0
0000C0
4000C0
C000C0
C000C0
6000C0
7001C0
3C0180
1F8380
07FF00
01FE00
000800
ENDCHAR
STARTCHAR Hcircumflex
ENCODING 292
SWIDTH 524 0
DWIDTH 19 0
BBX 17 34 1 0
BITMAP
00C000
01C000
01E000
03F000
077800
0E3800
1C1800
000000
000000
000000
000300
C00300
C00300
C00300
C00300
C00300
400300
400300
600300
600700
601F00
607B00
61E300
6F8300
7E0300
F80300
700300
300300
300300
300300
300300
300380
300180
200180
ENDCHAR
STARTCHAR hcircumflex
ENCODING 293
SWIDTH 427 0
DWIDTH 15 0
BBX 15 28 -1 0
BITMAP
00C0
00E0
00F0
C1F8
63BC
671C
6E0C
7000
3000
3000
3000
3000
37E0
1FF0
1E78
1818
180C
180C
1804
1806
1806
1806
1806
1C06
1C06
0C06
0C06
0C04
ENDCHAR
STARTCHAR hbar
ENCODING 295
SWIDTH 427 0
DWIDTH 15 0
BBX 17 25 -3 0
BITMAP
300000
180000
180000
180000
1C0000
7F8000
FF8000
CC0000
0C0000
0DF800
07FC00
079E00
060600
060300
060300
060100
060180
060180
060180
060180
070180
070180
030180
030180
030100
ENDCHAR
STARTCHAR Itilde
ENCODING 296
SWIDTH 167 0
DWIDTH 6 0
BBX 13 25 -3 0
BITMAP
2010
7C38
C760
C3C0
C000
8800
0800
0C00
0C00
0C00
0C00
0600
0600
0600
0600
0600
0300
0300
0300
0300
0300
0300
0300
0300
0100
ENDCHAR
STARTCHAR itilde
ENCODING 297
SWIDTH 174 0
DWIDTH 6 0
BBX 13 24 -2 0
BITMAP
1010
7C38
C7E0
C3C0
C000
4000
0000
0000
0C00
0C00
0C00
0C00
0C00
0C00
0C00
0E00
0E00
0600
0600
0600
0700
0700
0700
0200
ENDCHAR
STARTCHAR imacron
ENCODING 299
SWIDTH 174 0
DWIDTH 6 0
BBX 10 22 -2 0
BITMAP
1F80
7FC0
F1C0
0000
0000
0000
0C00
0C00
0C00
0C00
0C00
0C00
0C00
0E00
0E00
0600
0600
0600
0700
0700
0700
0200
ENDCHAR
STARTCHAR Ibreve
ENCODING 300
SWIDTH 167 0
DWIDTH 6 0
BBX 7 28 0 0
BITMAP
86
C6
7C
20
00
00
00
00
40
40
60
60
60
60
30
30
30
30
30
18
18
18
18
18
18
18
18
08
ENDCHAR
STARTCHAR ibreve
ENCODING 301
SWIDTH 174 0
DWIDTH 6 0
BBX 7 22 -1 0
BITMAP
06
C6
7C
38
00
00
18
18
18
18
18
18
18
1C
1C
0C
0C
0C
0E
0E
0E
04
ENDCHAR
STARTCHAR Iogonek
ENCODING 302
SWIDTH 167 0
DWIDTH 6 0
BBX 7 25 0 -5
BITMAP
40
40
60
60
60
60
30
30
30
30
30
18
18
18
18
18
18
18
18
78
E0
C0
C0
E0
7E
ENDCHAR
STARTCHAR iogonek
ENCODING 303
SWIDTH 174 0
DWIDTH 6 0
BBX 8 27 -1 -5
BITMAP
20
70
30
00
00
00
18
18
18
18
18
18
18
1C
1C
0C
0C
0C
0E
0E
0E
3C
70
60
C0
70
3F
ENDCHAR
STARTCHAR Idotaccent
ENCODING 304
SWIDTH 167 0
DWIDTH 6 0
BBX 5 27 0 0
BITMAP
C0
C0
C0
00
00
00
00
40
40
60
60
60
60
30
30
30
30
30
18
18
18
18
18
18
18
18
08
ENDCHAR
STARTCHAR dotlessi
ENCODING 305
SWIDTH 174 0
DWIDTH 6 0
BBX 4 16 2 0
BITMAP
C0
C0
C0
C0
C0
C0
C0
E0
E0
60
60
60
70
70
70
20
ENDCHAR
STARTCHAR Jcircumflex
ENCODING 308
SWIDTH 439 0
DWIDTH 16 0
BBX 16 34 1 0
BITMAP
0030
0038
007C
007E
01CE
0387
0303
0000
0000
0030
0030
0010
0018
0018
0018
0018
0018
0018
000C
000C
000C
400C
800C
C00C
C00C
400C
600C
300C
180C
0C0C
060C
0398
01F8
0070
ENDCHAR
STARTCHAR jcircumflex
ENCODING 309
SWIDTH 200 0
DWIDTH 7 0
BBX 13 42 -4 -16
BITMAP
0180
01C0
03E0
07E0
0E70
1C30
1818
0000
0000
0000
0000
0000
0100
0180
0180
0180
01C0
01C0
00C0
00C0
00E0
00E0
00E0
0060
0060
0060
0060
0070
0070
0030
8030
C030
C030
E030
6030
7030
3030
1830
1C30
0FF0
03E0
01E0
ENDCHAR
STARTCHAR Kcommaaccent
ENCODING 310
SWIDTH 468 0
DWIDTH 17 0
BBX 15 32 1 -11
BITMAP
8060
80E0
C1C0
C380
C700
CE00
CC00
D800
7000
6000
6000
7000
7800
7C00
6E00
6780
61C0
60F0
6038
601E
2006
0000
0000
0000
0000
0300
0380
0180
0180
0180
0300
0300
ENDCHAR
STARTCHAR kcommaaccent
ENCODING 311
SWIDTH 403 0
DWIDTH 15 0
BBX 14 33 0 -11
BITMAP
8000
8000
C000
C000
4000
6000
6060
60F0
60C0
6180
3300
3600
3C00
3C00
3800
3800
3C00
3E00
3F80
33F8
30FC
3038
0000
0000
0000
0000
0300
0300
0380
0300
0300
0300
0300
ENDCHAR
STARTCHAR Lacute
ENCODING 313
SWIDTH 346 0
DWIDTH 12 0
BBX 11 27 1 0
BITMAP
00C0
01C0
0380
0700
0E00
0800
0000
0000
6000
6000
6000
E000
E000
C000
C000
C000
C000
C000
C000
C000
C000
C000
C000
C000
F800
7FE0
1FE0
ENDCHAR
STARTCHAR lacute
ENCODING 314
SWIDTH 120 0
DWIDTH 4 0
BBX 6 28 -1 0
BITMAP
04
1C
38
70
E0
C0
00
30
30
30
30
30
30
30
30
30
30
30
30
30
30
30
30
30
30
30
30
30
ENDCHAR
STARTCHAR Lcommaaccent
ENCODING 315
SWIDTH 346 0
DWIDTH 12 0
BBX 11 30 1 -11
BITMAP
6000
6000
6000
E000
E000
C000
C000
C000
C000
C000
C000
C000
C000
C000
C000
C000
F800
7FE0
1FE0
0000
0000
0000
0000
0C00
0C00
0E00
0C00
0C00
0C00
0C00
ENDCHAR
STARTCHAR lcommaaccent
ENCODING 316
SWIDTH 120 0
DWIDTH 4 0
BBX 2 32 1 -11
BITMAP
C0
C0
C0
C0
C0
C0
C0
C0
C0
C0
C0
C0
C0
C0
C0
C0
C0
C0
C0
C0
C0
00
00
00
00
C0
C0
C0
C0
C0
C0
C0
ENDCHAR
STARTCHAR Lcaron
ENCODING 317
SWIDTH 346 0
DWIDTH 12 0
BBX 11 25 1 0
BITMAP
0600
0600
0600
0600
0600
0700
6300
6300
6000
E000
E000
C000
C000
C000
C000
C000
C000
C000
C000
C000
C000
C000
F800
7FE0
1FE0
ENDCHAR
STARTCHAR lcaron
ENCODING 318
SWIDTH 222 0
DWIDTH 8 0
BBX 6 26 1 0
BITMAP
08
0C
0C
0C
0C
CC
CC
C4
C0
C0
C0
C0
C0
C0
C0
C0
C0
C0
C0
C0
C0
C0
C0
C0
C0
C0
ENDCHAR
STARTCHAR Ldot
ENCODING 319
SWIDTH 346 0
DWIDTH 12 0
BBX 11 19 1 0
BITMAP
6000
6000
6000
E000
E000
C000
C000
C000
C000
CE00
DE00
DE00
CC00
C000
C000
C000
F800
7FE0
1FE0
ENDCHAR
STARTCHAR ldot
ENCODING 320
SWIDTH 333 0
DWIDTH 12 0
BBX 9 21 1 0
BITMAP
C000
C000
C000
C000
C000
C000
C000
C000
C000
C000
C000
C380
C780
C780
C300
C000
C000
C000
C000
C000
C000
ENDCHAR
STARTCHAR Lslash
ENCODING 321
SWIDTH 346 0
DWIDTH 12 0
BBX 13 20 0 0
BITMAP
0800
0800
1800
1800
1800
1800
1800
1800
1800
1C00
3E00
3E00
7800
F000
7000
3000
1800
1FF0
0FF8
03F8
ENDCHAR
STARTCHAR lslash
ENCODING 322
SWIDTH 120 0
DWIDTH 4 0
BBX 8 20 -2 1
BITMAP
18
18
18
18
18
18
1C
1F
1F
1F
3C
7C
DC
9C
1C
1C
1C
1C
0C
08
ENDCHAR
STARTCHAR Nacute
ENCODING 323
SWIDTH 609 0
DWIDTH 22 0
BBX 20 25 1 0
BITMAP
001000
003000
00E000
01C000
018000
030000
C00000
C00100
600380
6001C0
6001C0
7000C0
7000E0
700060
780060
F80030
CC0030
CC0030
C60030
C30030
C38070
C1C0E0
C0FFC0
C07F80
C00E00
ENDCHAR
STARTCHAR nacute
ENCODING 324
SWIDTH 459 0
DWIDTH 17 0
BBX 15 25 1 0
BITMAP
0080
0380
0700
0E00
1C00
1800
0000
0000
0000
03C0
0FE0
F870
F038
E018
E01C
C00C
C00C
C00C
E00E
E006
6006
6006
7006
3006
3004
ENDCHAR
STARTCHAR Ncommaaccent
ENCODING 325
SWIDTH 609 0
DWIDTH 22 0
BBX 20 30 1 -11
BITMAP
C00000
C00100
600380
6001C0
6001C0
7000C0
7000E0
700060
780060
F80030
CC0030
CC0030
C60030
C30030
C38070
C1C0E0
C0FFC0
C07F80
C00E00
000000
000000
000000
000000
006000
00E000
006000
006000
006000
00E000
00C000
ENDCHAR
STARTCHAR ncommaaccent
ENCODING 326
SWIDTH 459 0
DWIDTH 17 0
BBX 15 27 1 -11
BITMAP
03C0
0FE0
F870
F038
E018
E01C
C00C
C00C
C00C
E00E
E006
6006
6006
7006
3006
3004
0000
0000
0000
0000
0300
0300
0380
0380
0300
0300
0300
ENDCHAR
STARTCHAR Ncaron
ENCODING 327
SWIDTH 609 0
DWIDTH 22 0
BBX 20 27 1 0
BITMAP
060600
039E00
00F800
007000
000000
000000
000000
000000
C00000
C00100
600380
6001C0
6001C0
7000C0
7000E0
700060
780060
F80030
CC0030
CC0030
C60030
C30030
C38070
C1C0E0
C0FFC0
C07F80
C00E00
ENDCHAR
STARTCHAR ncaron
ENCODING 328
SWIDTH 459 0
DWIDTH 17 0
BBX 15 22 1 0
BITMAP
1830
2E70
07E0
0380
0000
0000
03C0
0FE0
F870
F038
E018
E01C
C00C
C00C
C00C
E00E
E006
6006
6006
7006
3006
3004
ENDCHAR
STARTCHAR napostrophe
ENCODING 329
SWIDTH 459 0
DWIDTH 17 0
BBX 15 24 1 0
BITMAP
3000
3800
1800
1800
1800
3000
3000
0000
03C0
0FE0
F870
F038
E018
E01C
C00C
C00C
C00C
E00E
E006
6006
6006
7006
3006
3004
ENDCHAR
STARTCHAR Omacron
ENCODING 332
SWIDTH 609 0
DWIDTH 22 0
BBX 20 24 1 0
BITMAP
03FC00
07FE00
000000
000000
000000
000000
000000
1FC000
3FF800
603E00
C00F00
C00380
C001C0
8000C0
800060
800060
C00030
C00030
600030
700070
3800E0
1E03C0
0FFF00
03F800
ENDCHAR
STARTCHAR omacron
ENCODING 333
SWIDTH 487 0
DWIDTH 18 0
BBX 16 19 1 0
BITMAP
0FF0
1FF0
0000
0000
03E0
1FF8
3C7C
701C
E006
C006
8002
8007
8006
C006
C00E
601C
787C
3FF0
0FC0
ENDCHAR
STARTCHAR Obreve
ENCODING 334
SWIDTH 609 0
DWIDTH 22 0
BBX 20 23 1 0
BITMAP
010800
011800
01F000
004000
000000
000000
1FC000
3FF800
603E00
C00F00
C00380
C001C0
8000C0
800060
800060
C00030
C00030
600030
700070
3800E0
1E03C0
0FFF00
03F800
ENDCHAR
STARTCHAR obreve
ENCODING 335
SWIDTH 487 0
DWIDTH 18 0
BBX 16 21 1 0
BITMAP
10C0
18C0
0F80
0200
0000
0000
03E0
1FF8
3C7C
701C
E006
C006
8002
8007
8006
C006
C00E
601C
787C
3FF0
0FC0
ENDCHAR
STARTCHAR Ohungarumlaut
ENCODING 336
SWIDTH 609 0
DWIDTH 22 0
BBX 20 25 1 0
BITMAP
01C800
039C00
073800
067000
004000
000000
000000
000000
1FC000
3FF800
603E00
C00F00
C00380
C001C0
8000C0
800060
800060
C00030
C00030
600030
700070
3800E0
1E03C0
0FFF00
03F800
ENDCHAR
STARTCHAR ohungarumlaut
ENCODING 337
SWIDTH 487 0
DWIDTH 18 0
BBX 16 20 1 0
BITMAP
0620
0E60
1CC0
1980
0100
03E0
1FF8
3C7C
701C
E006
C006
8002
8007
8006
C006
C00E
601C
787C
3FF0
0FC0
ENDCHAR
STARTCHAR OE
ENCODING 338
SWIDTH 848 0
DWIDTH 31 0
BBX 29 18 1 0
BITMAP
02000000
1FC7FFE0
3FE7FF10
60760000
C03E0000
C01E0000
801E0000
800E03F0
800FFF80
800E0000
C00E0000
C00C0000
600C0000
700C0000
380C0000
1E1C0000
0FFFFFF8
03F1FFC0
ENDCHAR
STARTCHAR oe
ENCODING 339
SWIDTH 875 0
DWIDTH 32 0
BBX 30 18 1 -1
BITMAP
00003F00
0000F780
03E1C180
0FFB80C0
3C7F00C0
701E00C0
E00E0180
C0060380
C0060F00
8007FC00
80064000
C0060000
C00F0000
601F0000
787DC000
3FF0F000
0FC07FFC
00001FE0
ENDCHAR
STARTCHAR Racute
ENCODING 340
SWIDTH 579 0
DWIDTH 21 0
BBX 20 31 0 -2
BITMAP
000400
000C00
003800
007000
006000
004000
000000
3FFC00
FFFF00
C00380
8001C0
8800E0
0C0060
0C00E0
0C01C0
0C0FC0
07FF00
07F800
070000
070000
078000
07C000
02E000
027000
033800
031C00
030E00
010380
0101C0
0000F0
000020
ENDCHAR
STARTCHAR racute
ENCODING 341
SWIDTH 346 0
DWIDTH 12 0
BBX 11 24 1 0
BITMAP
0100
0380
0700
0E00
1800
1000
0000
0000
1FC0
FFE0
E060
C000
C000
C000
C000
C000
C000
6000
6000
6000
7000
3000
3000
1000
ENDCHAR
STARTCHAR Rcommaaccent
ENCODING 342
SWIDTH 579 0
DWIDTH 21 0
BBX 20 33 0 -11
BITMAP
3FFC00
FFFF00
C00380
8001C0
8800E0
0C0060
0C00E0
0C01C0
0C0FC0
07FF00
07F800
070000
070000
078000
07C000
02E000
027000
033800
031C00
030E00
010380
0101C0
0000F0
000020
000000
000000
007000
007000
003000
003000
003000
007000
006000
ENDCHAR
STARTCHAR rcommaaccent
ENCODING 343
SWIDTH 346 0
DWIDTH 12 0
BBX 11 27 1 -11
BITMAP
1FC0
FFE0
E060
C000
C000
C000
C000
C000
C000
6000
6000
6000
7000
3000
3000
1000
0000
0000
0000
0000
0C00
0C00
0E00
0C00
0C00
0C00
0C00
ENDCHAR
STARTCHAR Rcaron
ENCODING 344
SWIDTH 579 0
DWIDTH 21 0
BBX 20 32 0 -2
BITMAP
030600
05CE00
007C00
007000
000000
000000
000000
000000
3FFC00
FFFF00
C00380
8001C0
8800E0
0C0060
0C00E0
0C01C0
0C0FC0
07FF00
07F800
070000
070000
078000
07C000
02E000
027000
033800
031C00
030E00
010380
0101C0
0000F0
000020
ENDCHAR
STARTCHAR rcaron
ENCODING 345
SWIDTH 346 0
DWIDTH 12 0
BBX 11 22 1 0
BITMAP
60C0
B9C0
0F80
0E00
0000
0000
1FC0
FFE0
E060
C000
C000
C000
C000
C000
C000
6000
6000
6000
7000
3000
3000
1000
ENDCHAR
STARTCHAR Sacute
ENCODING 346
SWIDTH 627 0
DWIDTH 23 0
BBX 21 29 1 0
BITMAP
000800
003800
007000
00E000
01C000
018000
000000
003000
03FF00
0703C0
0C00C0
080060
0C0000
0C0000
060000
078000
01E000
007800
001E00
000F80
4003C0
C000E0
C00030
C00038
E00038
700038
1C0070
0FFFE0
01FF80
ENDCHAR
STARTCHAR sacute
ENCODING 347
SWIDTH 514 0
DWIDTH 19 0
BBX 17 25 1 0
BITMAP
002000
007000
00E000
01C000
030000
020000
000000
000000
000000
3FC000
7DE000
E02000
C03000
C02000
600000
3C0000
1FF800
00FE00
000700
000300
800380
E00300
780700
3FFE00
0FF800
ENDCHAR
STARTCHAR Scircumflex
ENCODING 348
SWIDTH 627 0
DWIDTH 23 0
BBX 21 31 1 0
BITMAP
003000
007000
007800
00FC00
01DE00
038E00
070600
000000
000000
003000
03FF00
0703C0
0C00C0
080060
0C0000
0C0000
060000
078000
01E000
007800
001E00
000F80
4003C0
C000E0
C00030
C00038
E00038
700038
1C0070
0FFFE0
01FF80
ENDCHAR
STARTCHAR scircumflex
ENCODING 349
SWIDTH 514 0
DWIDTH 19 0
BBX 17 26 1 0
BITMAP
00C000
01C000
01E000
03F000
077800
0E3800
1C1800
000000
000000
000000
3FC000
7DE000
E02000
C03000
C02000
600000
3C0000
1FF800
00FE00
000700
000300
800380
E00300
780700
3FFE00
0FF800
ENDCHAR
STARTCHAR Scedilla
ENCODING 350
SWIDTH 627 0
DWIDTH 23 0
BBX 21 33 1 -11
BITMAP
003000
03FF00
0703C0
0C00C0
080060
0C0000
0C0000
060000
078000
01E000
007800
001E00
000F80
4003C0
C000E0
C00030
C00038
E00038
700038
1C0070
0FFFE0
03FF80
030000
030000
030000
01C000
00FC00
000C00
000600
020600
038600
01FC00
00F800
ENDCHAR
STARTCHAR scedilla
ENCODING 351
SWIDTH 514 0
DWIDTH 19 0
BBX 17 27 1 -11
BITMAP
3FC000
7DE000
E02000
C03000
C02000
600000
3C0000
1FF800
00FE00
000700
000300
800380
C00300
780700
3FFE00
0FF800
0C0000
0C0000
0C0000
070000
03F000
003800
001800
081800
0E1800
07F000
03E000
ENDCHAR
STARTCHAR Scaron
ENCODING 352
SWIDTH 627 0
DWIDTH 23 0
BBX 21 27 1 0
BITMAP
030600
05CE00
00FC00
007000
000000
003000
03FF00
0703C0
0C00C0
080060
0C0000
0C0000
060000
078000
01E000
007800
001E00
000F80
4003C0
C000E0
C00030
C00038
E00038
700038
1C0070
0FFFE0
01FF80
ENDCHAR
STARTCHAR scaron
ENCODING 353
SWIDTH 514 0
DWIDTH 19 0
BBX 17 22 1 0
BITMAP
0C1800
173800
03F000
01C000
000000
000000
3FC000
7DE000
E02000
C03000
C02000
600000
3C0000
1FF800
00FE00
000700
000300
800380
E00300
780700
3FFE00
0FF800
ENDCHAR
STARTCHAR Tcommaaccent
ENCODING 354
SWIDTH 581 0
DWIDTH 21 0
BBX 24 33 0 -10
BITMAP
C00000
FFFFF0
07FFFE
00181F
001800
001800
001800
001800
001800
000800
000C00
000C00
000C00
000C00
000C00
000C00
000C00
000E00
000600
000600
000700
000700
000300
000000
000000
000000
000600
000600
000700
000600
000600
000600
000600
ENDCHAR
STARTCHAR tcommaaccent
ENCODING 355
SWIDTH 328 0
DWIDTH 12 0
BBX 12 33 0 -11
BITMAP
0C00
0E00
0E00
0600
0600
0600
0E00
0E00
FFE0
7FF0
0600
0600
0600
0600
0600
0600
0600
0600
0600
0600
0600
0600
0200
0000
0000
0000
0600
0E00
0600
0600
0600
0E00
0C00
ENDCHAR
STARTCHAR Tcaron
ENCODING 356
SWIDTH 581 0
DWIDTH 21 0
BBX 24 27 0 0
BITMAP
030600
01CE00
007C00
003000
C00000
FFFFF0
07FFFE
00181F
001800
001800
001800
001800
001800
000800
000C00
000C00
000C00
000C00
000C00
000C00
000C00
000E00
000600
000600
000700
000700
000300
ENDCHAR
STARTCHAR tcaron
ENCODING 357
SWIDTH 431 0
DWIDTH 16 0
BBX 15 27 0 -1
BITMAP
0004
0004
0006
0006
0C06
0E06
0E06
0606
0600
0600
0E00
0E00
FFE0
7FF0
0600
0600
0600
0600
0600
0600
0600
0600
0600
0600
0600
0600
0200
ENDCHAR
STARTCHAR Utilde
ENCODING 360
SWIDTH 571 0
DWIDTH 21 0
BBX 19 25 1 0
BITMAP
020200
0F8700
18EE00
187C00
180000
280000
600200
C00300
C00700
C00700
C00300
C00300
C00300
C00300
C00300
C00180
400180
600180
6001C0
6003C0
3007C0
381EE0
1E7860
0FF060
07C000
ENDCHAR
STARTCHAR utilde
ENCODING 361
SWIDTH 501 0
DWIDTH 18 0
BBX 18 24 0 0
BITMAP
020200
0F8300
0CEE00
187C00
080000
080000
000000
400000
600000
600400
C00600
400600
600600
600600
600600
600600
600600
300F00
301F00
183B00
1C7180
0FE180
03C180
0001C0
ENDCHAR
STARTCHAR Umacron
ENCODING 362
SWIDTH 571 0
DWIDTH 21 0
BBX 19 24 1 0
BITMAP
07FC00
07FC00
000000
000000
200000
600200
C00300
C00700
C00700
C00300
C00300
C00300
C00300
C00300
C00180
400180
600180
6001C0
6003C0
3007C0
381EE0
1E7860
0FF060
07C000
ENDCHAR
STARTCHAR umacron
ENCODING 363
SWIDTH 501 0
DWIDTH 18 0
BBX 18 21 0 0
BITMAP
0FF800
0FF800
000000
000000
400000
600000
600400
C00600
400600
600600
600600
600600
600600
600600
300F00
301F00
183B00
1C7180
0FE180
03C180
0001C0
ENDCHAR
STARTCHAR Ubreve
ENCODING 364
SWIDTH 571 0
DWIDTH 21 0
BBX 19 23 1 0
BITMAP
021800
021000
01F000
20C000
600200
C00300
C00700
C00700
C00300
C00300
C00300
C00300
C00300
C00180
400180
600180
6001C0
6003C0
3007C0
381EE0
1E7860
0FF060
07C000
ENDCHAR
STARTCHAR ubreve
ENCODING 365
SWIDTH 501 0
DWIDTH 18 0
BBX 18 22 0 0
BITMAP
042000
046000
07C000
010000
000000
400000
600000
600400
C00600
400600
600600
600600
600600
600600
600600
300F00
301F00
183B00
1C7180
0FE180
03C180
0001C0
ENDCHAR
STARTCHAR Uring
ENCODING 366
SWIDTH 571 0
DWIDTH 21 0
BBX 19 26 1 0
BITMAP
004000
01E000
023000
021000
023000
03E000
208000
600200
C00300
C00700
C00700
C00300
C00300
C00300
C00300
C00300
C00180
400180
600180
6001C0
6003C0
3007C0
381EE0
1E7860
0FF060
07C000
ENDCHAR
STARTCHAR uring
ENCODING 367
SWIDTH 501 0
DWIDTH 18 0
BBX 18 21 0 0
BITMAP
008000
03E000
023000
041000
463000
63E000
608400
C00600
400600
600600
600600
600600
600600
600600
300F00
301F00
183B00
1C7180
0FE180
03C180
0001C0
ENDCHAR
STARTCHAR Uhungarumlaut
ENCODING 368
SWIDTH 571 0
DWIDTH 21 0
BBX 19 25 1 0
BITMAP
019000
073800
067000
046000
004000
200000
600200
C00300
C00700
C00700
C00300
C00300
C00300
C00300
C00300
C00180
400180
600180
6001C0
6003C0
3007C0
381EE0
1E7860
0FF060
07C000
ENDCHAR
STARTCHAR uhungarumlaut
ENCODING 369
SWIDTH 501 0
DWIDTH 18 0
BBX 18 24 0 0
BITMAP
00C800
039C00
033800
023000
002000
000000
000000
400000
600000
600400
C00600
400600
600600
600600
600600
600600
600600
300F00
301F00
183B00
1C7180
0FE180
03C180
0001C0
ENDCHAR
STARTCHAR Uogonek
ENCODING 370
SWIDTH 571 0
DWIDTH 21 0
BBX 21 24 1 -6
BITMAP
300200
600300
400300
C00300
C00300
C00300
C00300
C00300
400180
400180
600180
600180
6001C0
2001C0
3003E0
3807E0
1C1C60
0FF8E0
07E1E0
018300
000200
000700
0003C0
0000F8
ENDCHAR
STARTCHAR uogonek
ENCODING 371
SWIDTH 501 0
DWIDTH 18 0
BBX 19 22 0 -5
BITMAP
600000
600000
E00600
C00600
400600
600600
600600
600600
600600
700E00
300F00
381F00
1C3B00
0E7180
07E180
030380
000FC0
000C00
000800
000C00
000FE0
0001C0
ENDCHAR
STARTCHAR Wcircumflex
ENCODING 372
SWIDTH 703 0
DWIDTH 25 0
BBX 25 31 0 0
BITMAP
000C0000
000E0000
001F0000
003F0000
00738000
00E1C000
00C0C000
00000000
00000000
00000000
00000000
00000000
00000000
40000000
40000C00
C0000C00
C0000E00
C0000E00
E0000700
E0000700
60300300
60300300
60300300
60380180
60380180
70380380
307C0300
30EE0700
1FC79E00
1F03FC00
0600F000
ENDCHAR
STARTCHAR wcircumflex
ENCODING 373
SWIDTH 656 0
DWIDTH 24 0
BBX 23 26 0 0
BITMAP
001800
001C00
003E00
003F00
00E700
01C380
018180
000000
000000
000000
000000
200000
600000
600010
600018
C01808
C0180C
C0180C
60180C
601806
601C0E
703C0E
307E1C
1DE7FC
0FC3F8
078000
ENDCHAR
STARTCHAR Ycircumflex
ENCODING 374
SWIDTH 403 0
DWIDTH 15 0
BBX 13 32 1 -1
BITMAP
0300
0700
0780
0FC0
1DE0
38E0
7060
0000
8000
8018
C018
E018
6018
7030
3830
1E70
07E0
03E0
00E0
00C0
00C0
0180
0180
0180
0180
0300
0300
0300
0300
0300
0300
0200
ENDCHAR
STARTCHAR ycircumflex
ENCODING 375
SWIDTH 487 0
DWIDTH 18 0
BBX 16 44 1 -18
BITMAP
0180
01C0
03E0
03F0
0E70
1C38
1818
0000
0000
0000
8004
8004
8004
8006
8006
C006
C006
C006
C006
6007
6007
300F
183F
0FF3
07C3
0003
0003
0003
0003
0003
0003
0003
0003
0003
0003
0006
4006
6006
7006
380C
1E1C
0FF8
03F0
0040
ENDCHAR
STARTCHAR Ydieresis
ENCODING 376
SWIDTH 403 0
DWIDTH 15 0
BBX 13 29 1 -1
BITMAP
18C0
38E0
39E0
1080
0000
8000
8018
C018
E018
6018
7030
3830
1E70
07E0
03E0
00E0
00C0
00C0
0180
0180
0180
0180
0300
0300
0300
0300
0300
0300
0200
ENDCHAR
STARTCHAR Zacute
ENCODING 377
SWIDTH 571 0
DWIDTH 21 0
BBX 19 31 1 0
BITMAP
001000
003000
00E000
01C000
018000
010000
000000
000000
000000
7FC000
FBE000
803000
001800
000800
000800
000800
001800
001800
003800
01FF80
1FFFC0
1FF000
00E000
00C000
018000
018000
030000
0700E0
070FE0
07FFC0
03FC00
ENDCHAR
STARTCHAR zacute
ENCODING 378
SWIDTH 459 0
DWIDTH 17 0
BBX 15 26 1 0
BITMAP
0080
0180
0300
0600
0C00
0800
0000
0600
7FC0
E0E0
C060
0060
0060
0060
00C0
00C0
3FF8
FFE0
0700
0E00
0C00
1800
3804
3C7E
3FF8
0FC0
ENDCHAR
STARTCHAR Zdotaccent
ENCODING 379
SWIDTH 571 0
DWIDTH 21 0
BBX 19 28 1 0
BITMAP
030000
038000
038000
000000
000000
000000
7FC000
FBE000
803000
001800
000800
000800
000800
001800
001800
003800
01FF80
1FFFC0
1FF000
00E000
00C000
018000
018000
030000
0700E0
070FE0
07FFC0
03FC00
ENDCHAR
STARTCHAR zdotaccent
ENCODING 380
SWIDTH 459 0
DWIDTH 17 0
BBX 15 24 1 0
BITMAP
0300
0380
0180
0000
0000
0600
7FC0
E0E0
C060
0060
0060
0060
00C0
00C0
3FF8
FFE0
0700
0E00
0C00
1800
3804
3C7E
3FF8
0FC0
ENDCHAR
STARTCHAR Zcaron
ENCODING 381
SWIDTH 571 0
DWIDTH 21 0
BBX 19 28 1 0
BITMAP
181800
0E7000
03E000
01C000
000000
000000
7FC000
FBE000
803000
001800
000800
000800
000800
001800
001800
003800
01FF80
1FFFC0
1FF000
00E000
00C000
018000
018000
030000
0700E0
070FE0
07FFC0
03FC00
ENDCHAR
STARTCHAR zcaron
ENCODING 382
SWIDTH 459 0
DWIDTH 17 0
BBX 15 25 1 0
BITMAP
6060
39C0
0F80
0700
0000
0000
0600
7FC0
E0E0
C060
0060
0060
0060
00C0
00C0
3FF8
FFE0
0700
0E00
0C00
1800
3804
3C7E
3FF8
0FC0
ENDCHAR
STARTCHAR florin
ENCODING 402
SWIDTH 376 0
DWIDTH 14 0
BBX 19 34 -3 -9
BITMAP
003F00
007F80
00E1C0
00C0E0
018060
018000
018000
018000
038000
038000
038000
038000
038000
03E000
1FFF00
198C00
018000
018000
018000
018000
018000
018000
018000
018000
018000
018000
018000
018000
C18000
C18000
618000
398000
1F8000
078000
ENDCHAR
STARTCHAR AEacute
ENCODING 508
SWIDTH 960 0
DWIDTH 35 0
BBX 33 31 1 0
BITMAP
0000100000
0000380000
0000700000
0000E00000
07F1800000
0E79000000
181C000000
300C000000
3006000000
20037FFE00
60037FFF00
6003600000
6001E00000
6001E00000
4001E00000
4001E00000
4000E00000
4000E0FF00
4001FFF800
FFFDF80000
FFFFE00000
6000C00000
6000C00000
6000C00000
6000C00000
6000C00000
6000C00000
6000C00000
7000F1FF80
3000FFFF00
30009FF800
ENDCHAR
STARTCHAR aeacute
ENCODING 509
SWIDTH 881 0
DWIDTH 32 0
BBX 30 27 1 -1
BITMAP
00004000
0000E000
0001C000
00030000
00060000
00040000
00000000
00000000
07801E00
0FE07F80
0CF0E180
003980C0
001980C0
000F00C0
000F00C0
1FEF01C0
3FFE0780
701FFF00
C00FFC00
C0070000
80030000
C0030000
E0018000
7C7FE000
3FFE7E7C
07F03FF8
000007C0
ENDCHAR
STARTCHAR Oslashacute
ENCODING 510
SWIDTH 609 0
DWIDTH 22 0
BBX 20 28 1 -3
BITMAP
003000
007000
00E000
018000
030000
000000
000400
000C00
1FCC00
3FF800
603C00
C01F00
C01B80
C031C0
8030C0
802060
806060
C06030
C0C030
60C030
70C070
3980E0
1F83C0
0FFF00
03F800
060000
060000
040000
ENDCHAR
STARTCHAR oslashacute
ENCODING 511
SWIDTH 487 0
DWIDTH 18 0
BBX 16 22 1 0
BITMAP
0040
00E0
01C0
0380
0700
0600
0000
03E4
0FFC
3C7C
701C
E03E
C076
C066
80C3
81C6
C386
C30E
671C
7E7C
3FF0
1FC0
ENDCHAR
STARTCHAR Scommaaccent
ENCODING 536
SWIDTH 627 0
DWIDTH 23 0
BBX 21 33 1 -11
BITMAP
003000
03FF00
0703C0
0C00C0
080060
0C0000
0C0000
060000
078000
01E000
007800
001E00
000F80
4003C0
C000E0
C00030
C00038
E00038
700038
1C0070
0FFFE0
01FF80
000000
000000
000000
000000
00E000
00E000
006000
006000
006000
00E000
00C000
ENDCHAR
STARTCHAR scommaaccent
ENCODING 537
SWIDTH 514 0
DWIDTH 19 0
BBX 17 27 1 -11
BITMAP
3FC000
7DE000
E02000
C03000
C02000
600000
3C0000
1FF800
00FE00
000700
000300
800380
E00300
780700
3FFE00
0FF800
000000
000000
000000
000000
018000
01C000
01C000
01C000
018000
018000
018000
ENDCHAR
STARTCHAR circumflex
ENCODING 710
SWIDTH 375 0
DWIDTH 14 0
BBX 10 7 2 19
BITMAP
0C00
0E00
1F00
3F00
7380
E1C0
C0C0
ENDCHAR
STARTCHAR caron
ENCODING 711
SWIDTH 375 0
DWIDTH 14 0
BBX 10 4 2 18
BITMAP
C080
73C0
1F00
0E00
ENDCHAR
STARTCHAR breve
ENCODING 728
SWIDTH 224 0
DWIDTH 8 0
BBX 6 4 1 14
BITMAP
84
84
FC
20
ENDCHAR
STARTCHAR dotaccent
ENCODING 729
SWIDTH 152 0
DWIDTH 5 0
BBX 2 3 2 17
BITMAP
C0
C0
C0
ENDCHAR
STARTCHAR ring
ENCODING 730
SWIDTH 333 0
DWIDTH 12 0
BBX 7 7 3 14
BITMAP
10
7C
46
82
C6
7C
10
ENDCHAR
STARTCHAR ogonek
ENCODING 731
SWIDTH 254 0
DWIDTH 9 0
BBX 7 7 1 -5
BITMAP
10
38
60
C0
C0
E0
7E
ENDCHAR
STARTCHAR tilde
ENCODING 732
SWIDTH 402 0
DWIDTH 14 0
BBX 12 6 1 14
BITMAP
2030
7830
CEE0
83C0
8000
8000
ENDCHAR
STARTCHAR hungarumlaut
ENCODING 733
SWIDTH 264 0
DWIDTH 10 0
BBX 8 5 1 15
BITMAP
31
77
EE
CC
08
ENDCHAR
STARTCHAR Wgrave
ENCODING 7808
SWIDTH 703 0
DWIDTH 25 0
BBX 25 25 0 0
BITMAP
00180000
001C0000
000E0000
00070000
00000000
00000000
00000000
40000000
40000C00
C0000C00
C0000E00
C0000E00
E0000700
E0000700
60300300
60300300
60300300
60380180
60380180
70380380
307C0300
30EE0700
1FC79E00
1F03FC00
0600F000
ENDCHAR
STARTCHAR wgrave
ENCODING 7809
SWIDTH 656 0
DWIDTH 24 0
BBX 23 20 0 0
BITMAP
003000
003800
001C00
000E00
000000
200000
600000
600010
600018
C01808
C0180C
C0180C
60180C
601806
601C0E
703C0E
307E1C
1DE7FC
0FC3F8
078000
ENDCHAR
STARTCHAR Wacute
ENCODING 7810
SWIDTH 703 0
DWIDTH 25 0
BBX 25 25 0 0
BITMAP
00040000
000E0000
001C0000
00380000
00600000
00400000
00000000
40000000
40000C00
C0000C00
C0000E00
C0000E00
E0000700
E0000700
60300300
60300300
60300300
60380180
60380180
70380380
307C0300
30EE0700
1FC79E00
1F03FC00
0600F000
ENDCHAR
STARTCHAR wacute
ENCODING 7811
SWIDTH 656 0
DWIDTH 24 0
BBX 23 23 0 0
BITMAP
000400
000E00
001C00
003800
006000
004000
000000
000000
200000
600000
600010
600018
C01808
C0180C
C0180C
60180C
601806
601C0E
703C0E
307E1C
1DE7FC
0FC3F8
078000
ENDCHAR
STARTCHAR Wdieresis
ENCODING 7812
SWIDTH 703 0
DWIDTH 25 0
BBX 25 24 0 0
BITMAP
00610000
00F38000
00E38000
00410000
00000000
00000000
40000000
40000C00
C0000C00
C0000E00
C0000E00
E0000700
E0000700
60300300
60300300
60300300
60380180
60380180
70380380
307C0300
30EE0700
1FC79E00
1F03FC00
0600F000
ENDCHAR
STARTCHAR wdieresis
ENCODING 7813
SWIDTH 656 0
DWIDTH 24 0
BBX 23 19 0 0
BITMAP
00C300
01E700
01E700
008200
200000
600000
600010
600018
C01808
C0180C
C0180C
60180C
601806
601C0E
703C0E
307E1C
1DE7FC
0FC3F8
078000
ENDCHAR
STARTCHAR Ygrave
ENCODING 7922
SWIDTH 403 0
DWIDTH 15 0
BBX 13 30 1 -1
BITMAP
0C00
0E00
0700
0380
0000
0000
8000
8018
C018
E018
6018
7030
3830
1E70
07E0
03E0
00E0
00C0
00C0
0180
0180
0180
0180
0300
0300
0300
0300
0300
0300
0200
ENDCHAR
STARTCHAR ygrave
ENCODING 7923
SWIDTH 487 0
DWIDTH 18 0
BBX 16 38 1 -18
BITMAP
0300
0380
01C0
00E0
8004
8004
8004
8006
8006
C006
C006
C006
C006
6007
6007
300F
183F
0FF3
07C3
0003
0003
0003
0003
0003
0003
0003
0003
0003
0003
0006
4006
6006
7006
380C
1E1C
0FF8
03F0
0040
ENDCHAR
STARTCHAR endash
ENCODING 8211
SWIDTH 287 0
DWIDTH 10 0
BBX 9 2 1 9
BITMAP
FF80
FF80
ENDCHAR
STARTCHAR emdash
ENCODING 8212
SWIDTH 512 0
DWIDTH 18 0
BBX 16 2 1 9
BITMAP
7FFF
FFFF
ENDCHAR
STARTCHAR quoteleft
ENCODING 8216
SWIDTH 102 0
DWIDTH 4 0
BBX 2 8 1 18
BITMAP
80
80
C0
C0
C0
C0
C0
C0
ENDCHAR
STARTCHAR quoteright
ENCODING 8217
SWIDTH 102 0
DWIDTH 4 0
BBX 2 8 1 18
BITMAP
80
80
C0
C0
C0
C0
C0
C0
ENDCHAR
STARTCHAR quotesinglbase
ENCODING 8218
SWIDTH 102 0
DWIDTH 4 0
BBX 2 9 1 -1
BITMAP
80
80
C0
C0
C0
C0
C0
C0
40
ENDCHAR
STARTCHAR quotedblleft
ENCODING 8220
SWIDTH 234 0
DWIDTH 8 0
BBX 7 11 0 18
BITMAP
04
86
C6
C6
66
66
66
66
76
36
32
ENDCHAR
STARTCHAR quotedblright
ENCODING 8221
SWIDTH 234 0
DWIDTH 8 0
BBX 7 11 0 18
BITMAP
04
86
C6
C6
66
66
66
66
76
36
32
ENDCHAR
STARTCHAR quotedblbase
ENCODING 8222
SWIDTH 341 0
DWIDTH 12 0
BBX 7 12 3 -5
BITMAP
08
8C
8C
CC
CC
CE
CE
E6
66
66
26
04
ENDCHAR
STARTCHAR dagger
ENCODING 8224
SWIDTH 375 0
DWIDTH 14 0
BBX 12 23 1 0
BITMAP
0800
0800
0C00
0C00
0C00
0400
0400
07C0
FFE0
FEF0
0600
0600
0600
0600
0600
0600
0600
0600
0600
0200
0200
0300
0300
ENDCHAR
STARTCHAR daggerdbl
ENCODING 8225
SWIDTH 375 0
DWIDTH 14 0
BBX 17 27 -2 0
BITMAP
010000
038000
018000
018000
018000
018000
018000
008000
00C000
00C000
FFFF80
FFFB80
00C180
004000
004000
FFFF00
7FFF80
004000
004000
004000
004000
004000
004000
004000
004000
006000
006000
ENDCHAR
STARTCHAR bullet
ENCODING 8226
SWIDTH 341 0
DWIDTH 12 0
BBX 6 7 4 6
BITMAP
20
78
FC
FC
FC
F8
70
ENDCHAR
STARTCHAR ellipsis
ENCODING 8230
SWIDTH 612 0
DWIDTH 22 0
BBX 19 7 2 0
BITMAP
604080
F0E1C0
F1E1E0
F1F3E0
F1F3E0
F1E1C0
60C1C0
ENDCHAR
STARTCHAR guilsinglleft
ENCODING 8249
SWIDTH 487 0
DWIDTH 18 0
BBX 17 15 0 0
BITMAP
000100
000780
001E00
003800
00F000
01C000
038000
0E0000
1C0000
300000
700000
FF8000
3FFC00
01FE00
000600
ENDCHAR
STARTCHAR guilsinglright
ENCODING 8250
SWIDTH 403 0
DWIDTH 15 0
BBX 13 17 1 0
BITMAP
8000
E000
7000
3E00
0FE0
01F8
0038
0038
0070
00E0
01C0
0780
0E00
1C00
7800
E000
C000
ENDCHAR
STARTCHAR fraction
ENCODING 8260
SWIDTH 309 0
DWIDTH 11 0
BBX 11 27 0 0
BITMAP
0040
0060
00C0
00C0
00C0
00C0
0180
0180
0180
0300
0300
0300
0700
0600
0600
0E00
0C00
1C00
1800
1800
3800
3000
7000
6000
6000
C000
4000
ENDCHAR
STARTCHAR Euro
ENCODING 8364
SWIDTH 741 0
DWIDTH 27 0
BBX 26 25 0 0
BITMAP
00003E00
0000FE00
0001E200
00030000
00060000
000E0000
003FE000
7FFFF000
FFF00000
80C00000
00C00000
00800000
0180E000
01FFF000
1FFC0000
FF800000
03000000
03000000
01000000
01000000
01800000
018003C0
00E07FC0
007FFE00
001FC000
ENDCHAR
STARTCHAR trademark
ENCODING 8482
SWIDTH 1116 0
DWIDTH 40 0
BBX 39 22 0 0
BITMAP
FFFE03000C
3FFFFF801C
001CFF801C
001807C01C
001801C03C
001801E078
001801F0F8
001801BFF8
0008019F98
000C01800C
000C01800C
000C01800C
000C01800C
000C01800C
000C01800C
000C01800E
000E01800E
000601800E
000601800E
0007018006
0007018006
0003000006
ENDCHAR
STARTCHAR minus
ENCODING 8722
SWIDTH 287 0
DWIDTH 10 0
BBX 9 2 1 9
BITMAP
FF80
FF80
ENDCHAR
STARTCHAR commaaccent
ENCODING 63171
SWIDTH 375 0
DWIDTH 14 0
BBX 3 7 4 -11
BITMAP
E0
E0
60
60
60
E0
C0
ENDCHAR
STARTCHAR fi
ENCODING 64257
SWIDTH 551 0
DWIDTH 20 0
BBX 16 26 0 -1
BITMAP
01F8
03FC
070E
0607
0C33
0C38
0800
0800
1800
1800
180C
1C0C
1C0C
1F0C
FFFC
CFFC
060C
060C
070E
030E
038E
01C6
01C6
00E6
0066
0002
ENDCHAR
STARTCHAR fl
ENCODING 64258
SWIDTH 723 0
DWIDTH 26 0
BBX 16 25 0 0
BITMAP
01F8
03FC
070E
0607
0C03
0C18
0818
081C
181C
181C
181C
1C1C
1C1C
1F1C
FFFC
CFFC
061C
061C
071C
031C
039C
01DC
01CC
00EC
0068
ENDCHAR
STARTCHAR .notdef
ENCODING -1
SWIDTH 375 0
DWIDTH 14 0
BBX 1 1 0 0
BITMAP
00
ENDCHAR
STARTCHAR .null
ENCODING -1
SWIDTH 0 0
DWIDTH 0 0
BBX 1 1 0 0
BITMAP
00
ENDCHAR
STARTCHAR nonmarkingreturn
ENCODING -1
SWIDTH 375 0
DWIDTH 14 0
BBX 1 1 0 0
BITMAP
00
ENDCHAR
ENDFONT
